<?xml version="1.0" encoding="UTF-8"?>
<svg xmlns="http://www.w3.org/2000/svg" xmlns:xlink="http://www.w3.org/1999/xlink" width="612pt" height="792pt" viewBox="0 0 612 792" version="1.1">
<defs>
<clipPath id="clip1">
  <path d="M 610 399 L 612 399 L 612 425 L 610 425 Z M 610 399 "/>
</clipPath>
<clipPath id="clip2">
  <path d="M 623.542969 424.464844 C 618.734375 424.464844 614.058594 421.695312 611.976562 417.03125 C 609.167969 410.746094 611.980469 403.285156 618.296875 400.464844 C 619.984375 399.710938 621.703125 399.359375 623.371094 399.359375 C 628.167969 399.359375 632.585938 402.261719 634.9375 406.824219 C 637.140625 412.824219 635.4375 419.585938 629.597656 422.878906 C 627.683594 423.957031 625.601562 424.464844 623.542969 424.464844 "/>
</clipPath>
</defs>
<g id="surface1">
<path style=" stroke:none;fill-rule:nonzero;fill:rgb(96.710205%,55.769348%,28.814697%);fill-opacity:1;" d="M 228.292969 594.957031 C 228.292969 594.957031 225.679688 583.539062 229.296875 582.960938 C 231.015625 582.683594 231.933594 585.683594 234.121094 586.242188 C 238.300781 587.3125 241.5 592.4375 241.5 592.4375 L 228.292969 594.957031 "/>
<path style=" stroke:none;fill-rule:nonzero;fill:rgb(13.676453%,13.375854%,17.784119%);fill-opacity:1;" d="M 429.492188 268.042969 C 429.492188 263.742188 421.660156 260.253906 412 260.253906 C 402.335938 260.253906 394.503906 263.742188 394.503906 268.042969 C 394.503906 272.347656 402.335938 275.835938 412 275.835938 C 421.660156 275.835938 429.492188 272.347656 429.492188 268.042969 "/>
<path style=" stroke:none;fill-rule:nonzero;fill:rgb(58.695984%,58.822632%,60.38208%);fill-opacity:1;" d="M 774.585938 722.417969 L 105.351562 722.417969 C 103.15625 722.417969 101.382812 720.644531 101.382812 718.453125 C 101.382812 716.261719 103.15625 714.484375 105.351562 714.484375 L 774.585938 714.484375 C 776.773438 714.484375 778.550781 716.261719 778.550781 718.453125 C 778.550781 720.644531 776.773438 722.417969 774.585938 722.417969 "/>
<path style=" stroke:none;fill-rule:nonzero;fill:rgb(40.048218%,14.004517%,10.432434%);fill-opacity:1;" d="M 639.484375 517.808594 L 638.644531 516.910156 C 635.28125 513.320312 629.644531 513.136719 626.058594 516.5 L 620.535156 521.675781 C 619.257812 522.871094 617.25 522.804688 616.054688 521.527344 L 616.007812 521.480469 C 614.8125 520.203125 612.804688 520.136719 611.527344 521.335938 L 600.261719 531.886719 C 598.980469 533.085938 598.917969 535.09375 600.113281 536.371094 L 609.253906 546.125 L 619.519531 536.507812 L 618.375 535.289062 L 622.085938 534.105469 L 639.484375 517.808594 "/>
<path style=" stroke:none;fill-rule:nonzero;fill:rgb(13.676453%,13.375854%,17.784119%);fill-opacity:1;" d="M 617.972656 522.40625 L 582.605469 486.871094 C 580.355469 484.609375 577.292969 483.339844 574.101562 483.339844 L 560.746094 483.339844 L 560.746094 505.929688 L 567.230469 505.929688 C 568.71875 505.929688 570.140625 506.515625 571.1875 507.566406 L 602 538.375 L 617.972656 522.40625 "/>
<path style=" stroke:none;fill-rule:nonzero;fill:rgb(77.677917%,11.767578%,14.431763%);fill-opacity:1;" d="M 217.660156 722.417969 L 138.519531 722.417969 C 132.1875 722.417969 127.058594 717.289062 127.058594 710.960938 L 127.058594 629.929688 C 127.058594 623.601562 132.1875 618.46875 138.519531 618.46875 L 217.660156 618.46875 C 223.988281 618.46875 229.121094 623.601562 229.121094 629.929688 L 229.121094 710.960938 C 229.121094 717.289062 223.988281 722.417969 217.660156 722.417969 "/>
<path style=" stroke:none;fill-rule:nonzero;fill:rgb(87.924194%,23.989868%,12.644958%);fill-opacity:1;" d="M 341.210938 593.898438 L 262.070312 593.898438 C 255.738281 593.898438 250.609375 588.765625 250.609375 582.4375 L 250.609375 473.730469 C 250.609375 467.398438 255.738281 462.269531 262.070312 462.269531 L 341.210938 462.269531 C 347.539062 462.269531 352.671875 467.398438 352.671875 473.730469 L 352.671875 582.4375 C 352.671875 588.765625 347.539062 593.898438 341.210938 593.898438 "/>
<path style=" stroke:none;fill-rule:nonzero;fill:rgb(97.763062%,68.327332%,4.470825%);fill-opacity:1;" d="M 468.976562 722.417969 L 389.835938 722.417969 C 383.503906 722.417969 378.371094 717.289062 378.371094 710.960938 L 378.371094 434.261719 C 378.371094 427.929688 383.503906 422.800781 389.835938 422.800781 L 468.976562 422.800781 C 475.304688 422.800781 480.433594 427.929688 480.433594 434.261719 L 480.433594 710.960938 C 480.433594 717.289062 475.304688 722.417969 468.976562 722.417969 "/>
<path style=" stroke:none;fill-rule:nonzero;fill:rgb(85.163879%,57.545471%,8.769226%);fill-opacity:1;" d="M 608.390625 722.417969 L 529.25 722.417969 C 522.921875 722.417969 517.789062 717.289062 517.789062 710.960938 L 517.789062 514.972656 C 517.789062 508.644531 522.921875 503.511719 529.25 503.511719 L 608.390625 503.511719 C 614.71875 503.511719 619.851562 508.644531 619.851562 514.972656 L 619.851562 710.960938 C 619.851562 717.289062 614.71875 722.417969 608.390625 722.417969 "/>
<path style=" stroke:none;fill-rule:nonzero;fill:rgb(88.050842%,11.477661%,14.474487%);fill-opacity:1;" d="M 201.175781 722.417969 L 122.035156 722.417969 C 115.703125 722.417969 110.574219 717.289062 110.574219 710.960938 L 110.574219 629.929688 C 110.574219 623.601562 115.703125 618.46875 122.035156 618.46875 L 201.175781 618.46875 C 207.503906 618.46875 212.636719 623.601562 212.636719 629.929688 L 212.636719 710.960938 C 212.636719 717.289062 207.503906 722.417969 201.175781 722.417969 "/>
<path style=" stroke:none;fill-rule:nonzero;fill:rgb(94.429016%,28.68042%,11.140442%);fill-opacity:1;" d="M 336.179688 473.730469 L 336.179688 582.441406 C 336.179688 588.769531 331.050781 593.898438 324.71875 593.898438 L 245.578125 593.898438 C 239.441406 593.898438 234.429688 589.078125 234.128906 583.011719 C 234.121094 582.820312 234.121094 582.628906 234.121094 582.441406 L 234.121094 473.730469 C 234.121094 467.398438 239.25 462.269531 245.578125 462.269531 L 324.71875 462.269531 C 331.050781 462.269531 336.179688 467.398438 336.179688 473.730469 "/>
<path style=" stroke:none;fill-rule:nonzero;fill:rgb(75.567627%,21.090698%,13.194275%);fill-opacity:1;" d="M 247.25 591.5 L 245.78125 593.898438 L 245.578125 593.898438 C 239.441406 593.898438 234.429688 589.078125 234.128906 583.011719 L 247.25 591.5 "/>
<path style=" stroke:none;fill-rule:nonzero;fill:rgb(75.567627%,21.090698%,13.194275%);fill-opacity:1;" d="M 336.179688 552.378906 L 336.179688 582.441406 C 336.179688 588.769531 331.050781 593.898438 324.71875 593.898438 L 300.71875 593.898438 L 316.628906 548.519531 C 325.128906 549.53125 327.148438 549.050781 327.148438 549.050781 C 327.148438 549.050781 332.328125 547.269531 336.179688 552.378906 "/>
<path style=" stroke:none;fill-rule:nonzero;fill:rgb(97.862244%,82.536316%,2.537537%);fill-opacity:1;" d="M 452.488281 722.417969 L 373.347656 722.417969 C 367.019531 722.417969 361.890625 717.289062 361.890625 710.960938 L 361.890625 434.261719 C 361.890625 427.929688 367.019531 422.800781 373.347656 422.800781 L 452.488281 422.800781 C 458.816406 422.800781 463.949219 427.929688 463.949219 434.261719 L 463.949219 710.960938 C 463.949219 717.289062 458.816406 722.417969 452.488281 722.417969 "/>
<path style=" stroke:none;fill-rule:nonzero;fill:rgb(97.763062%,68.327332%,4.470825%);fill-opacity:1;" d="M 591.90625 722.417969 L 512.765625 722.417969 C 506.433594 722.417969 501.304688 717.289062 501.304688 710.960938 L 501.304688 514.972656 C 501.304688 508.644531 506.433594 503.511719 512.765625 503.511719 L 591.90625 503.511719 C 598.234375 503.511719 603.363281 508.644531 603.363281 514.972656 L 603.363281 710.960938 C 603.363281 717.289062 598.234375 722.417969 591.90625 722.417969 "/>
<path style=" stroke:none;fill-rule:nonzero;fill:rgb(97.453308%,65.124512%,40.686035%);fill-opacity:1;" d="M 207.71875 421.902344 L 205.160156 418.148438 C 204.71875 417.476562 205.277344 410.476562 202.394531 412.460938 C 199.96875 414.132812 200.3125 418.148438 202.746094 421.613281 C 203.1875 422.238281 203.0625 423.101562 202.453125 423.566406 L 207.71875 421.902344 "/>
<path style=" stroke:none;fill-rule:nonzero;fill:rgb(96.710205%,55.769348%,28.814697%);fill-opacity:1;" d="M 202.453125 423.566406 L 202.425781 423.589844 C 201.882812 424.007812 201.128906 423.960938 200.613281 423.511719 C 199.035156 422.125 196.738281 421.984375 195.753906 424.015625 C 194.585938 426.417969 199.195312 425.785156 199.984375 427.890625 C 201.117188 430.917969 204.734375 431.371094 206.019531 431.121094 L 207.613281 437.265625 L 211.691406 435.011719 L 209.894531 429.632812 C 211.734375 428.859375 212.382812 419.765625 210.105469 419.519531 C 209.035156 419.402344 209.375 420.9375 207.71875 421.902344 L 202.453125 423.566406 "/>
<path style=" stroke:none;fill-rule:nonzero;fill:rgb(97.453308%,65.124512%,40.686035%);fill-opacity:1;" d="M 208.414062 418.820312 C 207.253906 416.554688 199.933594 419.128906 200.097656 423.5 C 200.257812 427.871094 203.863281 428.160156 204.554688 425.589844 C 205.242188 423.019531 204.363281 422.78125 204.363281 422.78125 C 204.363281 422.78125 209.332031 420.621094 208.414062 418.820312 "/>
<path style=" stroke:none;fill-rule:nonzero;fill:rgb(97.453308%,65.124512%,40.686035%);fill-opacity:1;" d="M 210.664062 419.910156 C 209.941406 419.03125 206.417969 418.488281 204.636719 421.210938 C 202.855469 423.929688 203.835938 427.214844 205.933594 426.53125 C 208.226562 425.785156 208.023438 422.792969 208.023438 422.792969 C 208.023438 422.792969 212.113281 421.671875 210.664062 419.910156 "/>
<path style="fill:none;stroke-width:53.2014;stroke-linecap:butt;stroke-linejoin:miter;stroke:rgb(100%,100%,100%);stroke-opacity:1;stroke-miterlimit:10;" d="M 2042.8125 3573.046875 L 2140.429688 3616.484375 " transform="matrix(0.1,0,0,-0.1,0,792)"/>
<path style="fill:none;stroke-width:133.004;stroke-linecap:butt;stroke-linejoin:miter;stroke:rgb(13.676453%,13.375854%,17.784119%);stroke-opacity:1;stroke-miterlimit:10;" d="M 1627.539062 3162.578125 C 1627.539062 3162.578125 1900.546875 3136.289062 2060.15625 3231.992188 C 2219.765625 3327.734375 2092.070312 3599.648438 2092.070312 3599.648438 " transform="matrix(0.1,0,0,-0.1,0,792)"/>
<path style=" stroke:none;fill-rule:nonzero;fill:rgb(17.948914%,17.660522%,24.705505%);fill-opacity:1;" d="M 181.269531 478.660156 C 181.269531 483.175781 173.039062 486.835938 162.890625 486.835938 C 152.742188 486.835938 144.515625 483.175781 144.515625 478.660156 C 144.515625 474.144531 152.742188 470.484375 162.890625 470.484375 C 173.039062 470.484375 181.269531 474.144531 181.269531 478.660156 "/>
<path style=" stroke:none;fill-rule:nonzero;fill:rgb(40.048218%,14.004517%,10.432434%);fill-opacity:1;" d="M 126.953125 618.824219 L 126.953125 617.898438 C 126.953125 614.179688 129.972656 611.160156 133.691406 611.160156 L 139.414062 611.160156 C 140.738281 611.160156 141.8125 610.085938 141.8125 608.761719 L 141.8125 608.714844 C 141.8125 607.390625 142.890625 606.316406 144.214844 606.316406 L 155.890625 606.316406 C 157.214844 606.316406 158.289062 607.390625 158.289062 608.714844 L 158.289062 618.824219 L 147.648438 618.824219 L 147.648438 617.5625 L 144.988281 618.824219 L 126.953125 618.824219 "/>
<path style=" stroke:none;fill-rule:nonzero;fill:rgb(40.048218%,14.004517%,10.432434%);fill-opacity:1;" d="M 199.070312 618.640625 L 199.070312 617.710938 C 199.070312 613.992188 196.054688 610.976562 192.332031 610.976562 L 186.609375 610.976562 C 185.285156 610.976562 184.210938 609.902344 184.210938 608.574219 L 184.210938 608.527344 C 184.210938 607.203125 183.136719 606.128906 181.8125 606.128906 L 170.132812 606.128906 C 168.808594 606.128906 167.734375 607.203125 167.734375 608.527344 L 167.734375 618.640625 L 178.375 618.640625 L 178.375 617.375 L 181.035156 618.640625 L 199.070312 618.640625 "/>
<path style=" stroke:none;fill-rule:nonzero;fill:rgb(13.676453%,13.375854%,17.784119%);fill-opacity:1;" d="M 158.976562 607.695312 L 159.007812 529.480469 L 166.675781 529.480469 L 166.882812 607.695312 L 184.480469 607.425781 L 181.335938 513.261719 L 144.382812 513.261719 L 141.542969 607.425781 L 158.976562 607.695312 "/>
<path style=" stroke:none;fill-rule:nonzero;fill:rgb(9.422302%,9.191895%,8.988953%);fill-opacity:1;" d="M 144.386719 515.402344 L 181.339844 515.402344 L 182.5625 549.964844 L 166.730469 549.964844 L 166.679688 531.621094 L 159.011719 531.621094 L 159 549.964844 L 143.273438 549.964844 L 144.386719 515.402344 "/>
<path style=" stroke:none;fill-rule:nonzero;fill:rgb(13.676453%,13.375854%,17.784119%);fill-opacity:1;" d="M 162.84375 469.863281 C 137.738281 469.863281 140.855469 485.179688 140.855469 485.179688 L 140.855469 544.878906 L 184.625 544.878906 L 184.625 485.242188 C 184.625 485.242188 187.945312 469.863281 162.84375 469.863281 "/>
<path style=" stroke:none;fill-rule:nonzero;fill:rgb(97.453308%,65.124512%,40.686035%);fill-opacity:1;" d="M 142.269531 525.449219 C 142.269531 525.449219 144.296875 525.769531 146.785156 526.683594 C 149.253906 527.589844 151.152344 524.46875 146.867188 522.980469 C 145.496094 522.503906 144.335938 522.152344 143.328125 521.960938 C 144.929688 521.050781 147.3125 519.476562 146.972656 518.34375 C 146.105469 515.476562 142.855469 517.214844 140.578125 519.542969 C 138.882812 521.28125 137.878906 523.941406 137.289062 525.503906 C 137.128906 525.859375 136.972656 526.230469 136.816406 526.640625 C 134.550781 532.566406 143.070312 535.925781 145.117188 534.496094 C 148.304688 532.273438 140.503906 529.789062 140.503906 529.789062 C 140.503906 529.789062 146.210938 533.125 147.777344 530.664062 C 149.015625 528.730469 144.144531 526.300781 142.269531 525.449219 "/>
<path style="fill:none;stroke-width:53.2014;stroke-linecap:butt;stroke-linejoin:miter;stroke:rgb(100%,100%,100%);stroke-opacity:1;stroke-miterlimit:10;" d="M 1389.804688 2746.5625 L 1337.34375 2653.476562 " transform="matrix(0.1,0,0,-0.1,0,792)"/>
<path style=" stroke:none;fill-rule:nonzero;fill:rgb(13.676453%,13.375854%,17.784119%);fill-opacity:1;" d="M 133.542969 528.027344 C 132.589844 527.535156 110.230469 515.757812 112.695312 495.972656 C 115.257812 475.453125 146.171875 467.78125 166.566406 470.324219 L 164.921875 483.523438 C 156.753906 482.503906 146.773438 483.648438 138.878906 486.507812 C 135.226562 487.828125 126.648438 491.558594 125.894531 497.617188 C 124.597656 508.019531 139.507812 516.136719 139.65625 516.214844 L 133.542969 528.027344 "/>
<path style=" stroke:none;fill-rule:nonzero;fill:rgb(100%,100%,100%);fill-opacity:1;" d="M 151.675781 472.164062 L 162.84375 504.851562 L 174.105469 472.164062 Z M 151.675781 472.164062 "/>
<path style=" stroke:none;fill-rule:nonzero;fill:rgb(67.100525%,61.300659%,60.58197%);fill-opacity:1;" d="M 174.054688 475.773438 L 173.933594 475.71875 C 166.917969 472.339844 158.742188 472.339844 151.726562 475.722656 L 151.613281 475.773438 L 154.691406 484.710938 L 162.835938 478.683594 L 170.976562 484.710938 L 174.054688 475.773438 "/>
<path style=" stroke:none;fill-rule:nonzero;fill:rgb(7.469177%,6.587219%,5.978394%);fill-opacity:1;" d="M 165.140625 498.164062 L 162.832031 504.855469 L 160.546875 498.164062 L 162.882812 472.164062 L 165.140625 498.164062 "/>
<path style=" stroke:none;fill-rule:nonzero;fill:rgb(7.469177%,6.587219%,5.978394%);fill-opacity:1;" d="M 162.824219 481.464844 L 162.863281 481.464844 C 164 481.464844 165 480.714844 165.320312 479.625 L 166.597656 475.300781 C 167.085938 473.65625 165.851562 472.007812 164.140625 472.007812 L 161.546875 472.007812 C 159.832031 472.007812 158.601562 473.65625 159.085938 475.300781 L 160.363281 479.625 C 160.6875 480.714844 161.6875 481.464844 162.824219 481.464844 "/>
<path style=" stroke:none;fill-rule:nonzero;fill:rgb(100%,100%,100%);fill-opacity:1;" d="M 174.105469 472.164062 L 173.988281 472.105469 C 166.96875 468.726562 158.796875 468.726562 151.777344 472.109375 L 151.664062 472.164062 L 154.746094 481.097656 L 162.886719 475.738281 L 171.027344 481.097656 L 174.105469 472.164062 "/>
<path style=" stroke:none;fill-rule:nonzero;fill:rgb(17.948914%,17.660522%,24.705505%);fill-opacity:1;" d="M 162.832031 504.855469 L 174.105469 470.117188 L 182.195312 473.667969 L 177.308594 480.195312 L 174.105469 481.445312 L 175.453125 485.757812 L 162.832031 504.855469 "/>
<path style=" stroke:none;fill-rule:nonzero;fill:rgb(17.948914%,17.660522%,24.705505%);fill-opacity:1;" d="M 162.832031 504.855469 L 151.558594 470.117188 L 143.46875 473.195312 L 148.359375 480.195312 L 151.558594 481.445312 L 150.214844 485.757812 L 162.832031 504.855469 "/>
<path style=" stroke:none;fill-rule:nonzero;fill:rgb(17.948914%,17.660522%,24.705505%);fill-opacity:1;" d="M 162.179688 506.449219 C 162.179688 518.902344 162.179688 531.359375 162.179688 543.8125 C 162.179688 544.667969 163.507812 544.671875 163.507812 543.8125 C 163.507812 531.359375 163.507812 518.902344 163.507812 506.449219 C 163.507812 505.59375 162.179688 505.589844 162.179688 506.449219 "/>
<path style=" stroke:none;fill-rule:nonzero;fill:rgb(44.66095%,22.546387%,11.735535%);fill-opacity:1;" d="M 136.898438 452.582031 C 136.898438 452.582031 118.464844 421.574219 136.921875 413.140625 C 141.269531 396.445312 163.980469 400.65625 169.53125 402.226562 C 175.078125 403.796875 178.367188 400.945312 178.367188 400.945312 C 180.226562 402.625 180.40625 406.148438 180.40625 406.148438 L 184.695312 400.539062 C 190.386719 404.101562 193.550781 413.265625 185.570312 426.324219 L 136.898438 452.582031 "/>
<path style=" stroke:none;fill-rule:nonzero;fill:rgb(96.710205%,55.769348%,28.814697%);fill-opacity:1;" d="M 168.761719 470.132812 C 168.761719 473.058594 166.390625 475.429688 163.464844 475.429688 L 162.136719 475.429688 C 159.210938 475.429688 156.839844 473.058594 156.839844 470.132812 L 156.839844 461.144531 C 156.839844 458.21875 159.210938 455.84375 162.136719 455.84375 L 163.464844 455.84375 C 166.390625 455.84375 168.761719 458.21875 168.761719 461.144531 L 168.761719 470.132812 "/>
<path style=" stroke:none;fill-rule:nonzero;fill:rgb(97.453308%,65.124512%,40.686035%);fill-opacity:1;" d="M 166.585938 411.925781 L 151.523438 413.144531 C 141.746094 413.933594 134.492188 422.867188 135.320312 433.09375 L 135.679688 437.5 L 135.597656 437.582031 C 135.289062 437.5625 134.976562 437.558594 134.660156 437.585938 L 134.484375 437.597656 C 130.636719 437.910156 127.777344 441.429688 128.105469 445.453125 L 128.117188 445.601562 C 128.441406 449.625 131.824219 452.636719 135.671875 452.324219 L 135.855469 452.308594 C 136.175781 452.28125 136.488281 452.226562 136.796875 452.15625 L 136.886719 452.222656 C 138.050781 462.039062 146.429688 469.277344 155.929688 468.507812 L 171.066406 467.28125 C 180.84375 466.488281 188.097656 457.558594 187.269531 447.328125 L 185.785156 429.007812 C 184.960938 418.78125 176.363281 411.132812 166.585938 411.925781 "/>
<path style=" stroke:none;fill-rule:nonzero;fill:rgb(44.66095%,22.546387%,11.735535%);fill-opacity:1;" d="M 141.953125 442.914062 C 141.246094 434.199219 138.539062 423.382812 145.738281 416.835938 C 149.386719 413.519531 153.679688 413.1875 158.242188 412.816406 C 161.957031 412.515625 165.667969 412.148438 169.390625 411.914062 C 173.402344 411.660156 172.90625 405.261719 168.867188 405.449219 C 164.792969 405.644531 160.734375 406.109375 156.667969 406.4375 C 150.863281 406.910156 145.601562 408.15625 141.183594 412.429688 C 136.269531 417.179688 134.199219 423.925781 134.757812 430.832031 C 135.097656 435.027344 135.4375 439.21875 135.773438 443.414062 C 136.113281 447.578125 142.289062 447.078125 141.953125 442.914062 "/>
<path style=" stroke:none;fill-rule:nonzero;fill:rgb(9.422302%,9.191895%,8.988953%);fill-opacity:1;" d="M 158.964844 440.332031 C 159.066406 441.617188 158.398438 442.722656 157.46875 442.796875 C 156.535156 442.871094 155.695312 441.890625 155.59375 440.605469 C 155.488281 439.316406 156.15625 438.214844 157.089844 438.140625 C 158.019531 438.0625 158.859375 439.046875 158.964844 440.332031 "/>
<path style=" stroke:none;fill-rule:nonzero;fill:rgb(9.422302%,9.191895%,8.988953%);fill-opacity:1;" d="M 177.914062 438.796875 C 178.019531 440.082031 177.347656 441.1875 176.414062 441.261719 C 175.484375 441.339844 174.644531 440.355469 174.542969 439.070312 C 174.4375 437.785156 175.109375 436.679688 176.039062 436.605469 C 176.972656 436.527344 177.808594 437.511719 177.914062 438.796875 "/>
<path style=" stroke:none;fill-rule:nonzero;fill:rgb(44.66095%,22.546387%,11.735535%);fill-opacity:1;" d="M 179.609375 430.328125 C 177.148438 427.578125 173.296875 427.730469 171.3125 430.914062 C 170.863281 431.636719 172.003906 432.296875 172.449219 431.578125 C 173.996094 429.089844 176.796875 429.152344 178.679688 431.261719 C 179.246094 431.894531 180.175781 430.960938 179.609375 430.328125 "/>
<path style=" stroke:none;fill-rule:nonzero;fill:rgb(44.66095%,22.546387%,11.735535%);fill-opacity:1;" d="M 153.519531 433.246094 C 155.042969 430.84375 157.789062 430.460938 159.726562 432.660156 C 160.289062 433.296875 161.21875 432.363281 160.65625 431.730469 C 158.152344 428.886719 154.339844 429.492188 152.382812 432.585938 C 151.925781 433.300781 153.066406 433.960938 153.519531 433.246094 "/>
<path style=" stroke:none;fill-rule:nonzero;fill:rgb(44.66095%,22.546387%,11.735535%);fill-opacity:1;" d="M 183.976562 406.660156 C 183.976562 406.660156 185.054688 416.449219 165.527344 418.03125 C 146.003906 419.609375 138.757812 419.140625 140.207031 437.03125 C 140.207031 437.03125 134.203125 411.082031 151.058594 407.253906 C 167.910156 403.425781 174.695312 411.265625 183.976562 406.660156 "/>
<path style=" stroke:none;fill-rule:nonzero;fill:rgb(20.097351%,8.042908%,8.039856%);fill-opacity:1;" d="M 173.460938 454.503906 C 173.460938 456.40625 171.917969 457.949219 170.015625 457.949219 C 168.109375 457.949219 166.566406 456.40625 166.566406 454.503906 C 166.566406 452.597656 168.109375 451.054688 170.015625 451.054688 C 171.917969 451.054688 173.460938 452.597656 173.460938 454.503906 "/>
<path style=" stroke:none;fill-rule:nonzero;fill:rgb(98.002625%,86.685181%,20.448303%);fill-opacity:1;" d="M 223.894531 350.910156 C 223.894531 341.113281 215.644531 333.242188 205.714844 333.863281 C 197.257812 334.394531 190.359375 341.242188 189.777344 349.695312 C 189.394531 355.203125 191.628906 360.199219 195.355469 363.574219 C 196.652344 364.75 197.511719 366.328125 197.667969 368.070312 L 197.695312 368.40625 C 197.695312 370.539062 198.707031 378.054688 206.8125 378.054688 C 214.925781 378.054688 215.933594 370.539062 215.933594 368.40625 L 215.976562 367.933594 C 216.125 366.269531 216.945312 364.761719 218.191406 363.648438 C 221.691406 360.523438 223.894531 355.976562 223.894531 350.910156 "/>
<path style="fill:none;stroke-width:10;stroke-linecap:butt;stroke-linejoin:miter;stroke:rgb(100%,100%,100%);stroke-opacity:1;stroke-miterlimit:10;" d="M 2013.476562 4352.695312 L 2048.945312 4200 L 2087.34375 4200 L 2122.8125 4352.695312 C 2128.515625 4372.421875 2007.773438 4372.421875 2013.476562 4352.695312 Z M 2013.476562 4352.695312 " transform="matrix(0.1,0,0,-0.1,0,792)"/>
<path style=" stroke:none;fill-rule:nonzero;fill:rgb(60.145569%,59.632874%,57.10144%);fill-opacity:1;" d="M 206.914062 384.972656 L 206.71875 384.972656 C 201.339844 384.972656 196.980469 380.617188 196.980469 375.238281 L 196.980469 371.519531 L 216.648438 371.519531 L 216.648438 375.238281 C 216.648438 380.617188 212.289062 384.972656 206.914062 384.972656 "/>
<path style=" stroke:none;fill-rule:nonzero;fill:rgb(95.96405%,96.279907%,90.498352%);fill-opacity:1;" d="M 196.980469 372.324219 C 203.535156 372.324219 210.09375 372.324219 216.648438 372.324219 C 217.6875 372.324219 217.6875 370.710938 216.648438 370.710938 C 210.09375 370.710938 203.535156 370.710938 196.980469 370.710938 C 195.945312 370.710938 195.941406 372.324219 196.980469 372.324219 "/>
<path style=" stroke:none;fill-rule:nonzero;fill:rgb(95.96405%,96.279907%,90.498352%);fill-opacity:1;" d="M 196.980469 375.546875 C 203.535156 375.546875 210.09375 375.546875 216.648438 375.546875 C 217.6875 375.546875 217.6875 373.933594 216.648438 373.933594 C 210.09375 373.933594 203.535156 373.933594 196.980469 373.933594 C 195.945312 373.933594 195.941406 375.546875 196.980469 375.546875 "/>
<path style=" stroke:none;fill-rule:nonzero;fill:rgb(98.002625%,86.685181%,20.448303%);fill-opacity:1;" d="M 190.898438 330.484375 C 190.183594 329.765625 189.464844 329.050781 188.75 328.335938 C 187.824219 327.410156 186.128906 327.339844 185.214844 328.335938 C 184.300781 329.335938 184.226562 330.882812 185.214844 331.871094 C 185.929688 332.585938 186.644531 333.304688 187.363281 334.019531 C 188.289062 334.945312 189.984375 335.011719 190.898438 334.019531 C 191.8125 333.019531 191.886719 331.472656 190.898438 330.484375 "/>
<path style=" stroke:none;fill-rule:nonzero;fill:rgb(98.002625%,86.685181%,20.448303%);fill-opacity:1;" d="M 183.429688 340.179688 C 179.992188 338.800781 176.550781 337.425781 173.113281 336.046875 C 170.128906 334.847656 168.828125 339.683594 171.785156 340.867188 C 175.222656 342.246094 178.660156 343.621094 182.101562 345.003906 C 185.085938 346.199219 186.386719 341.363281 183.429688 340.179688 "/>
<path style=" stroke:none;fill-rule:nonzero;fill:rgb(98.002625%,86.685181%,20.448303%);fill-opacity:1;" d="M 226.230469 334.019531 C 227.28125 332.96875 228.335938 331.914062 229.386719 330.863281 C 230.3125 329.9375 230.378906 328.242188 229.386719 327.328125 C 228.386719 326.414062 226.839844 326.339844 225.851562 327.328125 C 224.800781 328.382812 223.746094 329.433594 222.695312 330.484375 C 221.769531 331.410156 221.699219 333.105469 222.695312 334.019531 C 223.695312 334.933594 225.242188 335.007812 226.230469 334.019531 "/>
<path style=" stroke:none;fill-rule:nonzero;fill:rgb(98.002625%,86.685181%,20.448303%);fill-opacity:1;" d="M 231.605469 345.003906 C 235.101562 343.839844 238.59375 342.675781 242.089844 341.515625 C 245.128906 340.503906 243.824219 335.675781 240.757812 336.695312 C 237.265625 337.855469 233.769531 339.019531 230.277344 340.179688 C 227.238281 341.191406 228.542969 346.023438 231.605469 345.003906 "/>
<path style=" stroke:none;fill-rule:nonzero;fill:rgb(100%,100%,100%);fill-opacity:1;" d="M 221.949219 366.867188 C 222.6875 367.605469 223.429688 368.34375 224.167969 369.082031 C 224.6875 369.601562 225.496094 368.796875 224.976562 368.273438 C 224.234375 367.535156 223.496094 366.796875 222.757812 366.058594 C 222.238281 365.535156 221.429688 366.34375 221.949219 366.867188 "/>
<path style=" stroke:none;fill-rule:nonzero;fill:rgb(98.002625%,86.685181%,20.448303%);fill-opacity:1;" d="M 230.359375 361.828125 C 232.394531 362.507812 234.433594 363.183594 236.472656 363.863281 C 239.53125 364.878906 240.84375 360.054688 237.800781 359.039062 C 235.761719 358.363281 233.726562 357.683594 231.6875 357.007812 C 228.628906 355.988281 227.316406 360.816406 230.359375 361.828125 "/>
<path style=" stroke:none;fill-rule:nonzero;fill:rgb(98.002625%,86.685181%,20.448303%);fill-opacity:1;" d="M 187.558594 367.992188 C 186.507812 369.042969 185.453125 370.09375 184.402344 371.144531 C 183.476562 372.070312 183.410156 373.765625 184.402344 374.679688 C 185.402344 375.59375 186.949219 375.667969 187.9375 374.679688 C 188.988281 373.628906 190.039062 372.578125 191.09375 371.527344 C 192.019531 370.601562 192.089844 368.902344 191.09375 367.992188 C 190.09375 367.074219 188.546875 367.003906 187.558594 367.992188 "/>
<path style=" stroke:none;fill-rule:nonzero;fill:rgb(98.002625%,86.685181%,20.448303%);fill-opacity:1;" d="M 182.183594 357.007812 C 179.605469 357.863281 177.027344 358.722656 174.453125 359.578125 C 171.414062 360.589844 172.71875 365.417969 175.78125 364.398438 C 178.359375 363.542969 180.933594 362.683594 183.511719 361.828125 C 186.550781 360.816406 185.246094 355.988281 182.183594 357.007812 "/>
<path style=" stroke:none;fill-rule:nonzero;fill:rgb(98.002625%,86.685181%,20.448303%);fill-opacity:1;" d="M 209.296875 326.921875 C 209.296875 323.246094 209.296875 319.570312 209.296875 315.894531 C 209.296875 312.675781 204.296875 312.671875 204.296875 315.894531 C 204.296875 319.570312 204.296875 323.246094 204.296875 326.921875 C 204.296875 330.140625 209.296875 330.144531 209.296875 326.921875 "/>
<path style=" stroke:none;fill-rule:nonzero;fill:rgb(76.283264%,70.628357%,69.276428%);fill-opacity:1;" d="M 301.015625 706.175781 C 301.015625 706.175781 299.46875 699.023438 312.296875 693.4375 L 317.851562 698.921875 L 309.5625 709.636719 L 301.015625 706.175781 "/>
<path style=" stroke:none;fill-rule:nonzero;fill:rgb(76.283264%,70.628357%,69.276428%);fill-opacity:1;" d="M 242.714844 706.640625 C 242.714844 706.640625 242.714844 699.320312 256.4375 696.578125 L 260.703125 703.113281 L 250.339844 711.832031 L 242.714844 706.640625 "/>
<path style=" stroke:none;fill-rule:nonzero;fill:rgb(40.048218%,14.004517%,10.432434%);fill-opacity:1;" d="M 245.25 717.523438 L 244.441406 718.988281 L 234.5625 713.417969 L 241.011719 701.710938 C 241.855469 700.175781 243.78125 699.617188 245.316406 700.464844 L 256.398438 706.691406 C 257.933594 707.535156 258.492188 709.464844 257.648438 711 L 257.617188 711.054688 C 256.773438 712.589844 257.332031 714.515625 258.863281 715.363281 L 262.203125 715.617188 C 267.121094 715.617188 271.109375 719.601562 271.109375 724.523438 L 271.109375 725.75 L 262.773438 725.75 C 256.035156 725.75 249.644531 722.765625 245.316406 717.605469 L 245.25 717.523438 "/>
<path style=" stroke:none;fill-rule:nonzero;fill:rgb(40.048218%,14.004517%,10.432434%);fill-opacity:1;" d="M 340.21875 719.652344 L 340.21875 718.421875 C 340.21875 713.507812 336.230469 709.519531 331.3125 709.519531 L 323.742188 709.519531 C 321.992188 709.519531 320.574219 708.097656 320.574219 706.347656 L 320.574219 706.285156 C 320.574219 704.53125 319.152344 703.113281 317.402344 703.113281 L 301.964844 703.113281 C 300.214844 703.113281 298.796875 704.53125 298.796875 706.285156 L 298.796875 719.652344 L 312.859375 719.652344 L 312.859375 717.980469 L 316.378906 719.652344 L 340.21875 719.652344 "/>
<path style=" stroke:none;fill-rule:nonzero;fill:rgb(13.676453%,13.375854%,17.784119%);fill-opacity:1;" d="M 269.902344 600.058594 C 273.996094 598.058594 270.558594 599.722656 269.628906 600.148438 C 267.75 601.007812 265.84375 601.800781 263.925781 602.5625 C 261.984375 603.328125 260.011719 604.003906 258.015625 604.609375 C 258.066406 604.59375 258.582031 606.300781 260.28125 605.976562 C 259.574219 606.109375 256.386719 605.972656 258.949219 606.292969 C 259.398438 606.351562 262.144531 608.179688 260.605469 606.964844 C 259.945312 606.445312 259.355469 605.832031 258.761719 605.238281 C 257.390625 603.867188 256.785156 603.054688 255.234375 601.046875 C 253.660156 599.007812 252.15625 596.90625 250.726562 594.765625 C 244.179688 584.945312 228.863281 594.957031 235.421875 604.785156 C 240.28125 612.070312 246.339844 621.707031 255.214844 624.203125 C 260.644531 625.730469 263.75 622.148438 268.773438 620.28125 C 272.585938 618.863281 276.269531 617.144531 279.921875 615.363281 C 284.410156 613.171875 285.039062 606.480469 282.5625 602.699219 C 279.578125 598.140625 274.378906 597.871094 269.902344 600.058594 "/>
<path style=" stroke:none;fill-rule:nonzero;fill:rgb(97.453308%,65.124512%,40.686035%);fill-opacity:1;" d="M 248.933594 592.148438 C 248.789062 599.601562 230.25 603.769531 226.5 593.667969 C 225.191406 590.144531 224.738281 586.667969 227.378906 585.179688 C 230.601562 583.367188 228.460938 592.625 230.894531 592.210938 C 230.894531 592.210938 229.148438 582.703125 231.335938 581.457031 C 235.15625 579.28125 234.792969 585.292969 235.921875 588.089844 L 236.875 591.8125 C 236.875 591.8125 249.011719 588.152344 248.933594 592.148438 "/>
<path style=" stroke:none;fill-rule:nonzero;fill:rgb(13.676453%,13.375854%,17.784119%);fill-opacity:1;" d="M 324.914062 664.648438 C 314.484375 657.152344 297.078125 650.933594 293.28125 649.625 C 292.0625 649.042969 290.703125 648.707031 289.265625 648.707031 L 259.585938 648.707031 C 254.421875 648.707031 250.234375 652.894531 250.234375 658.058594 C 250.234375 660.929688 251.535156 663.496094 253.570312 665.214844 C 258.539062 673.351562 263.480469 682.375 264.761719 686.164062 C 262.417969 689.261719 248.003906 696.109375 248.003906 696.109375 C 246.175781 707.734375 257.34375 711.832031 257.34375 711.832031 C 257.636719 711.710938 264.65625 708.839844 271.753906 704.636719 C 279.359375 700.132812 283.359375 696.628906 283.285156 686.449219 C 283.261719 682.609375 280.824219 676.222656 276.054688 667.410156 L 288.71875 667.410156 C 294.390625 669.429688 305.371094 673.777344 312.449219 678.300781 L 302.472656 697.914062 C 307.660156 709.636719 320.085938 704.605469 320.085938 704.605469 L 328.730469 686.917969 C 333.699219 679.726562 331.988281 669.734375 324.914062 664.648438 "/>
<path style=" stroke:none;fill-rule:nonzero;fill:rgb(9.422302%,9.191895%,8.988953%);fill-opacity:1;" d="M 312.207031 677.953125 L 297.65625 656.003906 L 253.148438 651.347656 C 251.453125 653.039062 250.402344 655.382812 250.402344 657.964844 C 250.402344 660.839844 251.699219 663.40625 253.738281 665.121094 C 256.164062 669.09375 260.570312 676.960938 260.570312 676.960938 C 270.726562 668.605469 279.691406 674.539062 279.691406 674.539062 L 275.976562 667.316406 L 288.886719 667.316406 C 294.453125 669.300781 305.121094 673.523438 312.207031 677.953125 "/>
<path style=" stroke:none;fill-rule:nonzero;fill:rgb(13.676453%,13.375854%,17.784119%);fill-opacity:1;" d="M 297.734375 656.09375 L 315.191406 612.570312 C 311.855469 600.09375 295.359375 598.589844 283.902344 599.128906 C 277.203125 599.445312 271.300781 603.628906 268.824219 609.859375 L 251.492188 653.453125 C 251.492188 653.453125 274.800781 675.144531 297.734375 656.09375 "/>
<path style=" stroke:none;fill-rule:nonzero;fill:rgb(13.676453%,13.375854%,17.784119%);fill-opacity:1;" d="M 304.390625 616.90625 C 312.246094 619.175781 320.101562 621.441406 327.953125 623.710938 C 332.769531 625.097656 337.8125 622.019531 339.207031 617.320312 C 340.640625 612.484375 342.070312 607.648438 343.503906 602.816406 C 346.855469 591.503906 329.207031 586.671875 325.863281 597.953125 C 324.429688 602.785156 322.996094 607.621094 321.566406 612.457031 C 325.316406 610.328125 329.066406 608.195312 332.816406 606.066406 C 324.964844 603.800781 317.109375 601.535156 309.253906 599.269531 C 297.921875 595.996094 293.082031 613.644531 304.390625 616.90625 "/>
<path style=" stroke:none;fill-rule:nonzero;fill:rgb(97.453308%,65.124512%,40.686035%);fill-opacity:1;" d="M 326.472656 596.246094 C 330.453125 602.550781 348.496094 597.722656 349.480469 584.832031 C 349.734375 581.492188 349.515625 575.835938 344.792969 576.6875 C 341.152344 577.34375 344.8125 585.171875 341.9375 586.964844 C 341.9375 586.964844 341.203125 577.621094 336.847656 578.140625 C 332.488281 578.660156 334.328125 584.167969 335.507812 586.039062 L 335.570312 590.203125 C 335.570312 590.203125 324.339844 592.867188 326.472656 596.246094 "/>
<path style=" stroke:none;fill-rule:nonzero;fill:rgb(13.676453%,13.375854%,17.784119%);fill-opacity:1;" d="M 318.875 605.757812 C 318.875 611.515625 306.980469 616.183594 292.308594 616.183594 C 277.636719 616.183594 265.742188 611.515625 265.742188 605.757812 C 265.742188 600 277.636719 595.332031 292.308594 595.332031 C 306.980469 595.332031 318.875 600 318.875 605.757812 "/>
<path style=" stroke:none;fill-rule:nonzero;fill:rgb(100%,100%,100%);fill-opacity:1;" d="M 286.371094 600.265625 L 290.777344 633.941406 L 308.71875 602.222656 Z M 286.371094 600.265625 "/>
<path style=" stroke:none;fill-rule:nonzero;fill:rgb(67.100525%,61.300659%,60.58197%);fill-opacity:1;" d="M 307.921875 605.832031 L 307.8125 605.761719 C 301.519531 601.769531 293.375 601.058594 285.691406 603.828125 L 285.566406 603.875 L 286.796875 613.082031 L 296.144531 607.761719 L 303.019531 614.5 L 307.921875 605.832031 "/>
<path style=" stroke:none;fill-rule:nonzero;fill:rgb(7.469177%,6.587219%,5.978394%);fill-opacity:1;" d="M 294.441406 627.449219 L 290.769531 633.945312 L 289.867188 627.050781 L 297.535156 601.246094 L 294.441406 627.449219 "/>
<path style=" stroke:none;fill-rule:nonzero;fill:rgb(7.469177%,6.587219%,5.978394%);fill-opacity:1;" d="M 295.566406 610.542969 L 295.605469 610.546875 C 296.734375 610.644531 297.886719 609.984375 298.429688 608.921875 L 300.59375 604.703125 C 301.414062 603.101562 300.523438 601.347656 298.820312 601.199219 L 296.234375 600.972656 C 294.527344 600.824219 292.964844 602.363281 293.109375 604.050781 L 293.492188 608.488281 C 293.589844 609.609375 294.433594 610.441406 295.566406 610.542969 "/>
<path style=" stroke:none;fill-rule:nonzero;fill:rgb(100%,100%,100%);fill-opacity:1;" d="M 308.71875 602.222656 L 308.609375 602.152344 C 302.3125 598.160156 294.167969 597.449219 286.484375 600.222656 L 286.359375 600.265625 L 287.59375 609.472656 L 296.804688 604.820312 L 303.8125 610.890625 L 308.71875 602.222656 "/>
<path style=" stroke:none;fill-rule:nonzero;fill:rgb(17.948914%,17.660522%,24.705505%);fill-opacity:1;" d="M 290.769531 633.945312 L 309.136719 600.175781 L 316.46875 604.433594 L 310.253906 610.535156 L 306.808594 611.507812 L 307.265625 615.9375 L 290.769531 633.945312 "/>
<path style=" stroke:none;fill-rule:nonzero;fill:rgb(17.948914%,17.660522%,24.705505%);fill-opacity:1;" d="M 290.769531 633.945312 L 286.675781 598.210938 L 277.984375 600.582031 L 281.414062 608.015625 L 284.347656 609.542969 L 282.121094 613.738281 L 290.769531 633.945312 "/>
<path style=" stroke:none;fill-rule:nonzero;fill:rgb(44.66095%,22.546387%,11.735535%);fill-opacity:1;" d="M 275.234375 586.242188 C 275.234375 586.242188 262.074219 553.78125 281.027344 548.386719 C 287.644531 532.992188 308.828125 540.363281 313.925781 542.679688 C 319.023438 544.996094 322.597656 542.742188 322.597656 542.742188 C 324.136719 544.628906 323.792969 548.035156 323.792969 548.035156 L 328.730469 543.277344 C 333.671875 547.527344 335.367188 556.789062 325.796875 568.15625 L 275.234375 586.242188 "/>
<path style=" stroke:none;fill-rule:nonzero;fill:rgb(97.453308%,65.124512%,40.686035%);fill-opacity:1;" d="M 309.679688 551.558594 L 295.042969 550.523438 C 285.542969 549.855469 277.273438 557.367188 276.570312 567.304688 L 276.269531 571.585938 L 276.179688 571.65625 C 275.886719 571.589844 275.589844 571.542969 275.28125 571.519531 L 275.109375 571.507812 C 271.367188 571.242188 268.113281 574.203125 267.835938 578.113281 L 267.828125 578.257812 C 267.550781 582.167969 270.355469 585.550781 274.097656 585.816406 L 274.269531 585.828125 C 274.585938 585.851562 274.894531 585.84375 275.199219 585.820312 L 275.277344 585.898438 C 274.957031 595.488281 281.941406 603.664062 291.175781 604.316406 L 305.886719 605.351562 C 315.386719 606.023438 323.65625 598.507812 324.355469 588.570312 L 325.613281 570.765625 C 326.3125 560.828125 319.179688 552.226562 309.679688 551.558594 "/>
<path style=" stroke:none;fill-rule:nonzero;fill:rgb(44.66095%,22.546387%,11.735535%);fill-opacity:1;" d="M 281.503906 577.699219 C 282.101562 569.234375 281.082031 558.453125 288.949219 553.222656 C 292.9375 550.570312 297.105469 550.878906 301.539062 551.191406 C 305.152344 551.449219 308.769531 551.636719 312.375 551.957031 C 316.265625 552.304688 316.722656 546.085938 312.816406 545.679688 C 308.878906 545.265625 304.914062 545.121094 300.964844 544.839844 C 295.324219 544.441406 290.089844 544.871094 285.222656 548.324219 C 279.808594 552.167969 276.835938 558.339844 276.359375 565.050781 C 276.074219 569.128906 275.785156 573.203125 275.5 577.277344 C 275.214844 581.328125 281.214844 581.75 281.503906 577.699219 "/>
<path style=" stroke:none;fill-rule:nonzero;fill:rgb(9.422302%,9.191895%,8.988953%);fill-opacity:1;" d="M 300.054688 578.632812 C 299.964844 579.882812 299.160156 580.847656 298.257812 580.78125 C 297.351562 580.71875 296.6875 579.652344 296.777344 578.402344 C 296.863281 577.152344 297.671875 576.191406 298.574219 576.253906 C 299.480469 576.320312 300.144531 577.382812 300.054688 578.632812 "/>
<path style=" stroke:none;fill-rule:nonzero;fill:rgb(9.422302%,9.191895%,8.988953%);fill-opacity:1;" d="M 316.625 579.011719 C 316.535156 580.261719 315.730469 581.222656 314.824219 581.15625 C 313.921875 581.09375 313.257812 580.027344 313.347656 578.78125 C 313.4375 577.53125 314.238281 576.566406 315.144531 576.632812 C 316.050781 576.695312 316.710938 577.761719 316.625 579.011719 "/>
<path style=" stroke:none;fill-rule:nonzero;fill:rgb(44.66095%,22.546387%,11.735535%);fill-opacity:1;" d="M 327.144531 549.050781 C 327.144531 549.050781 326.746094 558.601562 307.773438 557.265625 C 288.796875 555.925781 281.914062 554.410156 280.6875 571.800781 C 280.6875 571.800781 278.71875 546.011719 295.457031 544.804688 C 312.195312 543.59375 317.5625 552.113281 327.144531 549.050781 "/>
<path style=" stroke:none;fill-rule:nonzero;fill:rgb(44.66095%,22.546387%,11.735535%);fill-opacity:1;" d="M 301.9375 576.363281 C 299.675781 575.566406 297.414062 574.769531 295.15625 573.972656 C 294.035156 573.578125 293.550781 575.359375 294.664062 575.753906 C 296.925781 576.550781 299.1875 577.347656 301.445312 578.144531 C 302.570312 578.539062 303.050781 576.757812 301.9375 576.363281 "/>
<path style=" stroke:none;fill-rule:nonzero;fill:rgb(44.66095%,22.546387%,11.735535%);fill-opacity:1;" d="M 312.875 578.769531 C 315.175781 577.996094 317.480469 577.21875 319.78125 576.445312 C 320.898438 576.070312 320.421875 574.285156 319.289062 574.667969 C 316.988281 575.441406 314.6875 576.214844 312.382812 576.988281 C 311.265625 577.367188 311.742188 579.148438 312.875 578.769531 "/>
<path style=" stroke:none;fill-rule:nonzero;fill:rgb(17.948914%,17.660522%,24.705505%);fill-opacity:1;" d="M 290.136719 633.765625 C 286.75 643.699219 283.359375 653.632812 279.972656 663.5625 C 279.695312 664.375 280.980469 664.722656 281.257812 663.917969 C 284.644531 653.984375 288.03125 644.050781 291.421875 634.117188 C 291.695312 633.308594 290.410156 632.960938 290.136719 633.765625 "/>
<path style=" stroke:none;fill-rule:nonzero;fill:rgb(44.66095%,22.546387%,11.735535%);fill-opacity:1;" d="M 298.21875 594.476562 C 303.257812 594.476562 308.296875 594.476562 313.339844 594.476562 C 314.082031 594.476562 314.082031 593.320312 313.339844 593.320312 C 308.296875 593.320312 303.257812 593.320312 298.21875 593.320312 C 297.476562 593.320312 297.472656 594.476562 298.21875 594.476562 "/>
<path style=" stroke:none;fill-rule:nonzero;fill:rgb(98.129272%,79.84314%,2.859497%);fill-opacity:1;" d="M 393.050781 335.320312 L 396.183594 338.429688 C 396.554688 338.800781 397.1875 338.535156 397.183594 338.011719 C 397.152344 334.890625 396.703125 327.324219 393.28125 323.324219 L 366.722656 322.132812 C 362.953125 325.804688 361.828125 333.304688 361.519531 336.410156 C 361.464844 336.929688 362.070312 337.25 362.476562 336.917969 L 365.878906 334.097656 C 362.640625 348.050781 374.617188 366.304688 378.035156 366.460938 C 381.453125 366.613281 395.019531 349.507812 393.050781 335.320312 "/>
<path style=" stroke:none;fill-rule:nonzero;fill:rgb(98.075867%,88.182068%,25.39978%);fill-opacity:1;" d="M 385.199219 330.117188 C 384.695312 341.328125 378.769531 350.167969 378.769531 350.167969 C 378.769531 350.167969 373.65625 340.832031 374.160156 329.621094 C 374.664062 318.410156 377.546875 309.433594 380.59375 309.570312 C 383.640625 309.707031 385.703125 318.90625 385.199219 330.117188 "/>
<path style=" stroke:none;fill-rule:nonzero;fill:rgb(63.720703%,10.760498%,12.930298%);fill-opacity:1;" d="M 401.703125 320.679688 C 403.265625 319.246094 404.144531 318.445312 405.707031 317.015625 L 405.953125 311.542969 L 406.925781 289.914062 L 407.320312 281.09375 C 407.6875 272.980469 401.402344 266.105469 393.285156 265.738281 L 392.988281 265.726562 C 384.875 265.363281 378 271.644531 377.636719 279.761719 L 377.238281 288.582031 L 376.265625 310.210938 L 376.039062 315.222656 C 377.636719 316.964844 378.550781 317.964844 380.144531 319.710938 L 401.703125 320.679688 "/>
<path style=" stroke:none;fill-rule:nonzero;fill:rgb(84.158325%,13.757324%,14.349365%);fill-opacity:1;" d="M 399.238281 320.566406 C 400.804688 319.136719 401.683594 318.335938 403.246094 316.90625 L 403.492188 311.433594 L 404.464844 289.804688 L 404.859375 280.984375 C 405.226562 272.867188 398.941406 265.992188 390.824219 265.628906 L 390.527344 265.617188 C 382.414062 265.25 375.539062 271.535156 375.171875 279.652344 L 374.777344 288.472656 L 373.804688 310.097656 L 373.578125 315.109375 C 375.175781 316.855469 376.089844 317.851562 377.683594 319.597656 L 399.238281 320.566406 "/>
<path style=" stroke:none;fill-rule:nonzero;fill:rgb(63.720703%,10.760498%,12.930298%);fill-opacity:1;" d="M 382.101562 319.796875 C 383.664062 318.367188 384.542969 317.566406 386.105469 316.136719 L 386.355469 310.664062 L 387.324219 289.035156 L 387.722656 280.214844 C 388.085938 272.097656 381.800781 265.222656 373.6875 264.859375 L 373.390625 264.847656 C 365.273438 264.480469 358.398438 270.765625 358.03125 278.882812 L 357.636719 287.699219 L 356.664062 309.328125 L 356.441406 314.339844 C 358.035156 316.085938 358.945312 317.082031 360.542969 318.828125 L 382.101562 319.796875 "/>
<path style=" stroke:none;fill-rule:nonzero;fill:rgb(84.158325%,13.757324%,14.349365%);fill-opacity:1;" d="M 379.640625 319.6875 C 381.203125 318.257812 382.082031 317.453125 383.644531 316.023438 L 383.890625 310.550781 L 384.863281 288.925781 L 385.261719 280.105469 C 385.625 271.988281 379.339844 265.113281 371.226562 264.746094 L 370.929688 264.734375 C 362.8125 264.371094 355.9375 270.652344 355.570312 278.769531 L 355.175781 287.589844 L 354.203125 309.21875 L 353.980469 314.230469 C 355.574219 315.976562 356.484375 316.972656 358.082031 318.71875 L 379.640625 319.6875 "/>
<path style=" stroke:none;fill-rule:nonzero;fill:rgb(59.526062%,54.806519%,33.38623%);fill-opacity:1;" d="M 407.324219 300.980469 L 354.59375 298.609375 C 352.730469 298.527344 351.296875 296.730469 351.394531 294.601562 L 351.394531 294.523438 C 351.492188 292.390625 353.078125 290.730469 354.945312 290.816406 L 407.675781 293.183594 C 409.539062 293.269531 410.972656 295.0625 410.878906 297.195312 L 410.875 297.273438 C 410.777344 299.402344 409.1875 301.0625 407.324219 300.980469 "/>
<path style=" stroke:none;fill-rule:nonzero;fill:rgb(71.821594%,66.8396%,39.781189%);fill-opacity:1;" d="M 407.324219 302.574219 L 354.59375 300.207031 C 352.730469 300.121094 351.296875 298.328125 351.394531 296.195312 L 351.394531 296.117188 C 351.492188 293.988281 353.078125 292.328125 354.945312 292.414062 L 407.675781 294.78125 C 409.539062 294.867188 410.972656 296.660156 410.878906 298.792969 L 410.875 298.867188 C 410.777344 301 409.1875 302.660156 407.324219 302.574219 "/>
<path style="fill:none;stroke-width:19.6208;stroke-linecap:butt;stroke-linejoin:miter;stroke:rgb(97.525024%,92.425537%,17.674255%);stroke-opacity:1;stroke-miterlimit:10;" d="M 3653.789062 4901.367188 L 3605.351562 4903.515625 C 3593.984375 4904.023438 3585.195312 4913.671875 3585.664062 4925.078125 L 3587.851562 4973.476562 C 3588.359375 4984.882812 3598.007812 4993.671875 3609.375 4993.164062 L 3657.8125 4991.015625 C 3669.21875 4990.507812 3678.007812 4980.859375 3677.5 4969.453125 L 3675.3125 4921.054688 C 3674.804688 4909.648438 3665.195312 4900.859375 3653.789062 4901.367188 Z M 3653.789062 4901.367188 " transform="matrix(0.1,0,0,-0.1,0,792)"/>
<path style=" stroke:none;fill-rule:nonzero;fill:rgb(70.288086%,81.37207%,67.918396%);fill-opacity:1;" d="M 398.515625 323.558594 L 360.988281 321.875 C 359.335938 321.800781 358.058594 320.402344 358.132812 318.75 L 358.136719 318.722656 L 401.640625 320.675781 L 401.636719 320.703125 C 401.5625 322.355469 400.164062 323.632812 398.515625 323.558594 "/>
<path style=" stroke:none;fill-rule:nonzero;fill:rgb(40.048218%,14.004517%,10.432434%);fill-opacity:1;" d="M 461.277344 417.210938 L 462.058594 416.265625 C 465.1875 412.46875 464.644531 406.859375 460.851562 403.730469 L 455.011719 398.914062 C 453.660156 397.800781 453.46875 395.804688 454.582031 394.449219 L 454.621094 394.402344 C 455.738281 393.050781 455.546875 391.050781 454.191406 389.9375 L 442.28125 380.117188 C 440.933594 379.003906 438.933594 379.195312 437.820312 380.546875 L 429.316406 390.859375 L 440.167969 399.808594 L 441.230469 398.519531 L 442.882812 402.046875 L 461.277344 417.210938 "/>
<path style=" stroke:none;fill-rule:nonzero;fill:rgb(40.048218%,14.004517%,10.432434%);fill-opacity:1;" d="M 381.617188 417.632812 L 382.820312 417.402344 C 387.652344 416.480469 390.820312 411.816406 389.898438 406.984375 L 388.480469 399.550781 C 388.152344 397.828125 389.28125 396.171875 391.003906 395.839844 L 391.066406 395.828125 C 392.785156 395.5 393.914062 393.839844 393.585938 392.121094 L 390.691406 376.957031 C 390.363281 375.238281 388.703125 374.109375 386.984375 374.4375 L 373.851562 376.941406 L 376.488281 390.757812 L 378.132812 390.445312 L 377.148438 394.210938 L 381.617188 417.632812 "/>
<path style=" stroke:none;fill-rule:nonzero;fill:rgb(13.676453%,13.375854%,17.784119%);fill-opacity:1;" d="M 459.851562 344.078125 C 453.949219 334.964844 446.269531 330.503906 439.347656 328.386719 C 437.460938 324.753906 433.671875 322.269531 429.296875 322.269531 L 398.976562 322.269531 C 392.722656 322.269531 387.652344 327.339844 387.652344 333.597656 L 387.652344 334.75 C 387.652344 339.898438 391.089844 344.238281 395.792969 345.613281 C 399.644531 348.089844 405.519531 353.269531 404.753906 361.503906 C 403.773438 371.996094 390.175781 375.070312 389.65625 375.183594 L 393.425781 393.683594 C 403.753906 391.578125 421.722656 382.804688 423.546875 363.261719 C 424.160156 356.675781 422.960938 350.949219 420.726562 346.078125 L 429.296875 346.078125 C 429.5625 346.078125 429.824219 346.066406 430.085938 346.050781 C 431.378906 345.960938 432.679688 346.035156 433.914062 346.4375 C 437.316406 347.554688 441.085938 349.824219 444.007812 354.339844 C 450.945312 365.050781 440.765625 377.929688 440.359375 378.433594 L 454.929688 390.433594 C 455.730469 389.464844 474.324219 366.429688 459.851562 344.078125 "/>
<path style=" stroke:none;fill-rule:nonzero;fill:rgb(9.422302%,9.191895%,8.988953%);fill-opacity:1;" d="M 420.972656 346.078125 L 429.542969 346.078125 C 429.808594 346.078125 430.070312 346.066406 430.332031 346.050781 C 431.625 345.960938 432.925781 346.035156 434.15625 346.4375 C 437.5625 347.554688 441.328125 349.824219 444.253906 354.339844 C 451.1875 365.050781 441.011719 377.929688 440.605469 378.433594 L 455.175781 390.433594 C 455.976562 389.464844 474.570312 366.429688 460.097656 344.078125 C 454.195312 334.964844 446.519531 330.503906 439.59375 328.386719 C 437.707031 324.753906 433.917969 322.269531 429.542969 322.269531 C 429.542969 322.269531 385.820312 313.898438 399.222656 322.269531 C 412.625 330.644531 420.972656 346.078125 420.972656 346.078125 "/>
<path style=" stroke:none;fill-rule:nonzero;fill:rgb(9.422302%,9.191895%,8.988953%);fill-opacity:1;" d="M 428.957031 322.210938 L 398.636719 322.210938 C 392.910156 322.210938 388.1875 326.464844 387.429688 331.984375 L 387.695312 335.851562 C 387.695312 335.851562 407.097656 345.988281 439.410156 332.285156 L 439.140625 328.371094 L 439.007812 328.328125 C 437.121094 324.695312 433.332031 322.210938 428.957031 322.210938 "/>
<path style=" stroke:none;fill-rule:nonzero;fill:rgb(13.676453%,13.375854%,17.784119%);fill-opacity:1;" d="M 424.179688 278.984375 C 424.488281 279.09375 424.792969 279.210938 425.101562 279.332031 C 426.53125 279.890625 423.507812 278.628906 425.359375 279.4375 C 426.035156 279.730469 426.699219 280.046875 427.363281 280.359375 C 430.921875 282.054688 434.300781 284.097656 437.550781 286.320312 C 439.339844 287.542969 440.996094 288.910156 442.632812 290.332031 C 443.753906 291.308594 444.808594 292.359375 445.859375 293.40625 C 446.214844 293.773438 446.5625 294.144531 446.914062 294.511719 C 448.121094 296.503906 448.773438 295.9375 448.871094 292.820312 C 444.816406 295.9375 439.21875 298.101562 434.476562 299.882812 C 426.199219 302.984375 429.78125 316.367188 438.15625 313.226562 C 442.253906 311.6875 446.25 309.925781 450.152344 307.9375 C 453.191406 306.394531 456.722656 304.769531 458.910156 302.085938 C 465.222656 294.328125 459.375 287.117188 453.5 281.53125 C 446.300781 274.6875 437.265625 268.945312 427.855469 265.636719 C 419.414062 262.667969 415.816406 276.042969 424.179688 278.984375 "/>
<path style=" stroke:none;fill-rule:nonzero;fill:rgb(59.526062%,54.806519%,33.38623%);fill-opacity:1;" d="M 434.914062 298.960938 L 433.394531 290.613281 C 435.730469 286.660156 438.140625 279.300781 434.058594 268.460938 L 434.050781 268.4375 C 433.683594 267.417969 434.839844 266.496094 435.8125 266.972656 L 438.828125 268.445312 C 440.398438 269.207031 441.566406 270.632812 441.9375 272.339844 C 445.652344 289.523438 435.414062 298.535156 434.914062 298.960938 "/>
<path style=" stroke:none;fill-rule:nonzero;fill:rgb(71.821594%,66.8396%,39.781189%);fill-opacity:1;" d="M 434.027344 299.746094 L 433.394531 290.5625 C 434.300781 289.015625 435.21875 286.96875 435.761719 284.433594 L 442.074219 285.78125 C 440.253906 294.320312 435.652344 298.378906 434.027344 299.746094 "/>
<path style=" stroke:none;fill-rule:nonzero;fill:rgb(13.676453%,13.375854%,17.784119%);fill-opacity:1;" d="M 438.828125 329.578125 C 406.515625 343.28125 387.113281 333.144531 387.113281 333.144531 L 383.582031 281.933594 C 382.960938 272.914062 389.769531 265.097656 398.789062 264.472656 L 417.839844 263.160156 C 426.859375 262.539062 434.675781 269.347656 435.296875 278.367188 L 438.828125 329.578125 "/>
<path style=" stroke:none;fill-rule:nonzero;fill:rgb(9.422302%,9.191895%,8.988953%);fill-opacity:1;" d="M 436.96875 302.554688 C 436.707031 302.429688 436.4375 302.292969 436.167969 302.144531 C 436.167969 302.144531 433.230469 297.980469 432.246094 300.191406 C 431.394531 302.109375 431.9375 303.628906 432.976562 304.796875 C 432.457031 305.132812 432.011719 305.519531 431.628906 305.945312 C 428.972656 306.488281 426.417969 306.914062 426.21875 308.824219 C 425.992188 310.953125 427.816406 311.628906 429.828125 311.738281 C 429.847656 311.921875 429.875 312.101562 429.90625 312.277344 C 429.660156 312.300781 429.414062 312.320312 429.160156 312.332031 C 424.476562 312.546875 427.40625 317.867188 431.863281 317.621094 C 428.890625 320.136719 431.300781 324.195312 438.070312 318.546875 L 436.96875 302.554688 "/>
<path style=" stroke:none;fill-rule:nonzero;fill:rgb(97.453308%,65.124512%,40.686035%);fill-opacity:1;" d="M 439.628906 299.960938 C 439.058594 299.183594 437.625 298.800781 436.167969 297.980469 C 436.167969 297.980469 433.230469 293.820312 432.246094 296.03125 C 431.21875 298.339844 432.203125 300.078125 433.65625 301.3125 C 430.445312 302.207031 426.472656 302.261719 426.21875 304.664062 C 425.738281 309.238281 434.703125 307.09375 434.703125 307.09375 C 434.703125 307.09375 432.183594 308.03125 429.160156 308.171875 C 424.476562 308.386719 427.40625 313.707031 431.863281 313.464844 C 428.8125 316.039062 431.425781 320.242188 438.589844 313.945312 C 441.335938 311.53125 441.710938 308.03125 441.671875 305.269531 C 441.648438 303.386719 440.863281 301.066406 439.628906 299.960938 "/>
<path style=" stroke:none;fill-rule:nonzero;fill:rgb(9.422302%,9.191895%,8.988953%);fill-opacity:1;" d="M 406.449219 314.222656 C 406.273438 312.5625 404.320312 312.023438 402.074219 311.554688 C 401.585938 310.847656 400.898438 310.25 400.011719 309.816406 C 400.835938 308.703125 401.183594 307.304688 400.421875 305.59375 C 399.4375 303.378906 396.496094 307.542969 396.496094 307.542969 C 395.808594 307.929688 395.125 308.21875 394.535156 308.5 C 391.359375 307.742188 388.265625 306.671875 385.273438 305.367188 L 386.328125 320.636719 C 388.839844 321.382812 391.144531 321.933594 392.957031 322.289062 C 393.277344 322.71875 393.644531 323.125 394.078125 323.503906 C 401.242188 329.804688 403.851562 325.601562 400.800781 323.023438 C 405.261719 323.265625 408.191406 317.945312 403.507812 317.730469 C 403.171875 317.714844 402.847656 317.6875 402.527344 317.65625 C 402.589844 317.488281 402.648438 317.316406 402.699219 317.144531 C 404.765625 317.054688 406.675781 316.402344 406.449219 314.222656 "/>
<path style=" stroke:none;fill-rule:nonzero;fill:rgb(13.676453%,13.375854%,17.784119%);fill-opacity:1;" d="M 387.316406 269.269531 C 377.519531 276.105469 368.691406 285.566406 363.652344 296.445312 C 357.515625 309.695312 384.21875 317.382812 392.8125 318.777344 C 401.539062 320.195312 405.28125 306.863281 396.488281 305.433594 C 391.753906 304.664062 387.152344 303.183594 382.789062 301.195312 C 380.785156 300.28125 378.855469 299.222656 376.980469 298.066406 C 377.152344 298.171875 374.878906 296.476562 375.757812 297.222656 C 374.570312 296.21875 376.160156 297.894531 376.242188 298.378906 C 376.242188 299.605469 376.242188 300.832031 376.242188 302.058594 C 377.289062 296.980469 383.703125 290.804688 387.515625 287.050781 C 389.265625 285.328125 391.125 283.71875 393.027344 282.171875 C 394.285156 281.148438 392.289062 282.699219 393.726562 281.632812 C 393.914062 281.492188 394.105469 281.355469 394.300781 281.21875 C 401.5625 276.152344 394.65625 264.148438 387.316406 269.269531 "/>
<path style=" stroke:none;fill-rule:nonzero;fill:rgb(97.453308%,65.124512%,40.686035%);fill-opacity:1;" d="M 391.492188 305.753906 C 392.0625 304.976562 393.496094 304.589844 394.953125 303.773438 C 394.953125 303.773438 397.890625 299.613281 398.875 301.824219 C 399.902344 304.132812 398.917969 305.871094 397.464844 307.105469 C 400.675781 308 404.652344 308.050781 404.902344 310.453125 C 405.382812 315.03125 396.421875 312.886719 396.421875 312.886719 C 396.421875 312.886719 398.941406 313.824219 401.960938 313.960938 C 406.644531 314.179688 403.714844 319.496094 399.257812 319.253906 C 402.308594 321.832031 399.695312 326.035156 392.53125 319.738281 C 389.785156 317.324219 389.410156 313.820312 389.449219 311.058594 C 389.472656 309.179688 390.257812 306.859375 391.492188 305.753906 "/>
<path style=" stroke:none;fill-rule:nonzero;fill:rgb(59.526062%,54.806519%,33.38623%);fill-opacity:1;" d="M 385.511719 301.078125 L 383.988281 292.734375 C 386.324219 288.777344 388.734375 281.417969 384.648438 270.578125 C 384.363281 269.816406 384.742188 268.960938 385.496094 268.648438 L 388.640625 267.339844 C 389.445312 267.003906 390.355469 267.410156 390.664062 268.226562 C 398.722656 289.464844 386.0625 300.605469 385.511719 301.078125 "/>
<path style=" stroke:none;fill-rule:nonzero;fill:rgb(71.821594%,66.8396%,39.781189%);fill-opacity:1;" d="M 384.621094 301.867188 L 383.988281 292.679688 C 384.894531 291.136719 385.8125 289.085938 386.355469 286.550781 L 392.671875 287.898438 C 390.847656 296.441406 386.246094 300.496094 384.621094 301.867188 "/>
<path style=" stroke:none;fill-rule:nonzero;fill:rgb(100%,100%,100%);fill-opacity:1;" d="M 400.5625 266.867188 L 413.507812 298.894531 L 422.960938 265.636719 Z M 400.5625 266.867188 "/>
<path style=" stroke:none;fill-rule:nonzero;fill:rgb(67.100525%,61.300659%,60.58197%);fill-opacity:1;" d="M 423.105469 269.246094 L 422.984375 269.195312 C 415.792969 266.207031 407.632812 266.65625 400.808594 270.414062 L 400.699219 270.476562 L 404.265625 279.230469 L 412.0625 272.765625 L 420.523438 278.335938 L 423.105469 269.246094 "/>
<path style=" stroke:none;fill-rule:nonzero;fill:rgb(7.469177%,6.587219%,5.978394%);fill-opacity:1;" d="M 415.433594 292.089844 L 413.496094 298.898438 L 410.847656 292.339844 L 411.753906 266.253906 L 415.433594 292.089844 "/>
<path style=" stroke:none;fill-rule:nonzero;fill:rgb(7.469177%,6.587219%,5.978394%);fill-opacity:1;" d="M 412.203125 275.542969 L 412.242188 275.539062 C 413.378906 275.476562 414.335938 274.675781 414.597656 273.570312 L 415.636719 269.179688 C 416.03125 267.511719 414.710938 265.9375 413.003906 266.03125 L 410.410156 266.171875 C 408.699219 266.265625 407.5625 267.976562 408.136719 269.59375 L 409.648438 273.84375 C 410.03125 274.914062 411.070312 275.605469 412.203125 275.542969 "/>
<path style=" stroke:none;fill-rule:nonzero;fill:rgb(100%,100%,100%);fill-opacity:1;" d="M 422.960938 265.636719 L 422.839844 265.585938 C 415.644531 262.597656 407.484375 263.046875 400.664062 266.808594 L 400.554688 266.867188 L 404.117188 275.621094 L 411.953125 269.820312 L 420.378906 274.726562 L 422.960938 265.636719 "/>
<path style=" stroke:none;fill-rule:nonzero;fill:rgb(17.948914%,17.660522%,24.705505%);fill-opacity:1;" d="M 413.496094 298.898438 L 422.851562 263.59375 L 431.121094 266.695312 L 426.597656 273.484375 L 423.472656 274.90625 L 425.050781 279.136719 L 413.496094 298.898438 "/>
<path style=" stroke:none;fill-rule:nonzero;fill:rgb(17.948914%,17.660522%,24.705505%);fill-opacity:1;" d="M 413.496094 298.898438 L 400.335938 264.832031 L 392.425781 268.347656 L 397.691406 275.070312 L 400.957031 276.144531 L 399.851562 280.523438 L 413.496094 298.898438 "/>
<path style=" stroke:none;fill-rule:nonzero;fill:rgb(17.948914%,17.660522%,24.705505%);fill-opacity:1;" d="M 412.929688 300.488281 C 413.539062 311.800781 414.152344 323.113281 414.765625 334.421875 C 414.8125 335.273438 416.144531 335.28125 416.097656 334.421875 C 415.484375 323.113281 414.871094 311.800781 414.257812 300.488281 C 414.210938 299.636719 412.882812 299.632812 412.929688 300.488281 "/>
<path style=" stroke:none;fill-rule:nonzero;fill:rgb(44.66095%,22.546387%,11.735535%);fill-opacity:1;" d="M 385.316406 246.40625 C 385.316406 246.40625 366.882812 215.394531 385.34375 206.964844 C 389.691406 190.265625 412.402344 194.480469 417.949219 196.050781 C 423.5 197.617188 426.789062 194.769531 426.789062 194.769531 C 428.644531 196.449219 428.828125 199.972656 428.828125 199.972656 L 433.117188 194.363281 C 438.804688 197.921875 441.96875 207.089844 433.988281 220.144531 L 385.316406 246.40625 "/>
<path style=" stroke:none;fill-rule:nonzero;fill:rgb(96.710205%,55.769348%,28.814697%);fill-opacity:1;" d="M 417.183594 263.957031 C 417.183594 266.882812 414.808594 269.253906 411.882812 269.253906 L 410.558594 269.253906 C 407.632812 269.253906 405.261719 266.882812 405.261719 263.957031 L 405.261719 254.96875 C 405.261719 252.039062 407.632812 249.667969 410.558594 249.667969 L 411.882812 249.667969 C 414.808594 249.667969 417.183594 252.039062 417.183594 254.96875 L 417.183594 263.957031 "/>
<path style=" stroke:none;fill-rule:nonzero;fill:rgb(97.453308%,65.124512%,40.686035%);fill-opacity:1;" d="M 415.007812 205.746094 L 399.945312 206.964844 C 390.167969 207.757812 382.914062 216.691406 383.742188 226.917969 L 384.097656 231.320312 L 384.019531 231.40625 C 383.710938 231.386719 383.398438 231.382812 383.082031 231.40625 L 382.90625 231.421875 C 379.058594 231.734375 376.199219 235.25 376.523438 239.277344 L 376.539062 239.425781 C 376.863281 243.449219 380.246094 246.457031 384.09375 246.148438 L 384.273438 246.132812 C 384.597656 246.105469 384.910156 246.050781 385.21875 245.976562 L 385.308594 246.046875 C 386.472656 255.859375 394.847656 263.097656 404.351562 262.328125 L 419.488281 261.105469 C 429.265625 260.3125 436.519531 251.378906 435.691406 241.152344 L 434.207031 222.832031 C 433.378906 212.605469 424.78125 204.957031 415.007812 205.746094 "/>
<path style=" stroke:none;fill-rule:nonzero;fill:rgb(44.66095%,22.546387%,11.735535%);fill-opacity:1;" d="M 390.371094 236.734375 C 389.667969 228.019531 386.960938 217.203125 394.160156 210.65625 C 397.804688 207.34375 402.097656 207.007812 406.660156 206.640625 C 410.378906 206.339844 414.089844 205.96875 417.808594 205.738281 C 421.824219 205.484375 421.328125 199.082031 417.285156 199.273438 C 413.210938 199.46875 409.15625 199.933594 405.089844 200.261719 C 399.285156 200.730469 394.023438 201.980469 389.605469 206.25 C 384.6875 211.003906 382.617188 217.746094 383.179688 224.65625 C 383.515625 228.847656 383.855469 233.042969 384.195312 237.234375 C 384.53125 241.402344 390.710938 240.902344 390.371094 236.734375 "/>
<path style=" stroke:none;fill-rule:nonzero;fill:rgb(9.422302%,9.191895%,8.988953%);fill-opacity:1;" d="M 407.386719 234.152344 C 407.488281 235.441406 406.816406 236.542969 405.886719 236.621094 C 404.957031 236.695312 404.117188 235.714844 404.011719 234.425781 C 403.90625 233.140625 404.578125 232.035156 405.511719 231.960938 C 406.441406 231.886719 407.28125 232.867188 407.386719 234.152344 "/>
<path style=" stroke:none;fill-rule:nonzero;fill:rgb(9.422302%,9.191895%,8.988953%);fill-opacity:1;" d="M 426.335938 232.621094 C 426.4375 233.90625 425.769531 235.011719 424.835938 235.085938 C 423.90625 235.160156 423.066406 234.179688 422.960938 232.894531 C 422.855469 231.605469 423.527344 230.503906 424.460938 230.429688 C 425.390625 230.351562 426.230469 231.335938 426.335938 232.621094 "/>
<path style=" stroke:none;fill-rule:nonzero;fill:rgb(44.66095%,22.546387%,11.735535%);fill-opacity:1;" d="M 428.03125 224.152344 C 425.566406 221.402344 421.714844 221.550781 419.730469 224.738281 C 419.285156 225.460938 420.421875 226.121094 420.867188 225.402344 C 422.417969 222.914062 425.214844 222.976562 427.101562 225.085938 C 427.664062 225.714844 428.59375 224.78125 428.03125 224.152344 "/>
<path style=" stroke:none;fill-rule:nonzero;fill:rgb(44.66095%,22.546387%,11.735535%);fill-opacity:1;" d="M 401.9375 227.070312 C 403.464844 224.667969 406.207031 224.28125 408.148438 226.484375 C 408.710938 227.117188 409.636719 226.183594 409.078125 225.550781 C 406.570312 222.710938 402.761719 223.316406 400.800781 226.40625 C 400.347656 227.125 401.484375 227.785156 401.9375 227.070312 "/>
<path style=" stroke:none;fill-rule:nonzero;fill:rgb(44.66095%,22.546387%,11.735535%);fill-opacity:1;" d="M 432.398438 200.484375 C 432.398438 200.484375 433.476562 210.273438 413.949219 211.851562 C 394.421875 213.433594 387.179688 212.960938 388.628906 230.855469 C 388.628906 230.855469 382.625 204.90625 399.476562 201.078125 C 416.332031 197.25 423.113281 205.089844 432.398438 200.484375 "/>
<path style=" stroke:none;fill-rule:nonzero;fill:rgb(90.274048%,31.663513%,15.873718%);fill-opacity:1;" d="M 409.722656 247.652344 C 413.882812 251.089844 419.570312 250.796875 423.261719 246.8125 C 423.765625 246.269531 422.953125 245.449219 422.445312 245.996094 C 419.210938 249.488281 414.234375 249.890625 410.535156 246.835938 C 409.96875 246.367188 409.148438 247.179688 409.722656 247.652344 "/>
<path style=" stroke:none;fill-rule:nonzero;fill:rgb(96.49353%,93.547058%,97.322083%);fill-opacity:1;" d="M 650.570312 449.46875 L 619.269531 504.5 L 607.910156 499.628906 L 583.820312 489.289062 L 527.898438 480.570312 L 564.230469 420.011719 L 605.710938 420.011719 L 605.269531 435.648438 L 612.230469 421.488281 L 645.5 434.898438 L 650.570312 449.46875 "/>
<path style=" stroke:none;fill-rule:nonzero;fill:rgb(76.985168%,71.063232%,86.457825%);fill-opacity:1;" d="M 650.570312 449.46875 L 619.269531 504.5 L 607.910156 499.628906 L 645.5 434.898438 L 650.570312 449.46875 "/>
<path style=" stroke:none;fill-rule:nonzero;fill:rgb(76.985168%,71.063232%,86.457825%);fill-opacity:1;" d="M 570.722656 485.472656 L 605.707031 420.015625 L 609.097656 428.195312 L 578.191406 488.414062 L 570.722656 485.472656 "/>
<path style=" stroke:none;fill-rule:nonzero;fill:rgb(97.453308%,65.124512%,40.686035%);fill-opacity:1;" d="M 559.832031 377.40625 L 544.738281 376.6875 C 534.941406 376.222656 526.605469 384.152344 526.117188 394.402344 L 525.90625 398.816406 L 525.816406 398.890625 C 525.515625 398.832031 525.207031 398.785156 524.890625 398.773438 L 524.710938 398.761719 C 520.855469 398.578125 517.570312 401.703125 517.378906 405.738281 L 517.371094 405.886719 C 517.183594 409.917969 520.148438 413.335938 524.007812 413.519531 L 524.1875 413.527344 C 524.511719 413.542969 524.828125 413.527344 525.144531 413.496094 L 525.226562 413.574219 C 525.121094 423.457031 532.503906 431.707031 542.027344 432.160156 L 557.195312 432.882812 C 566.992188 433.347656 575.332031 425.417969 575.816406 415.167969 L 576.691406 396.808594 C 577.179688 386.558594 569.632812 377.871094 559.832031 377.40625 "/>
<path style=" stroke:none;fill-rule:nonzero;fill:rgb(44.66095%,22.546387%,11.735535%);fill-opacity:1;" d="M 531.875 405.804688 C 532.289062 397.070312 530.988281 385.996094 538.96875 380.425781 C 543.007812 377.601562 547.308594 377.820312 551.882812 378.039062 C 555.605469 378.214844 559.332031 378.324219 563.054688 378.570312 C 567.066406 378.832031 567.394531 372.421875 563.359375 372.09375 C 559.296875 371.761719 555.210938 371.707031 551.136719 371.511719 C 545.320312 371.234375 539.941406 371.800781 535.015625 375.46875 C 529.527344 379.554688 526.613281 385.976562 526.285156 392.902344 C 526.085938 397.105469 525.886719 401.304688 525.6875 405.507812 C 525.484375 409.683594 531.679688 409.980469 531.875 405.804688 "/>
<path style=" stroke:none;fill-rule:nonzero;fill:rgb(44.66095%,22.546387%,11.735535%);fill-opacity:1;" d="M 578.191406 375.226562 C 578.191406 375.226562 578.007812 385.070312 558.441406 384.140625 C 538.871094 383.210938 531.75 381.816406 530.894531 399.746094 C 530.894531 399.746094 528.265625 373.242188 545.46875 371.601562 C 562.671875 369.960938 568.398438 378.605469 578.191406 375.226562 "/>
<path style=" stroke:none;fill-rule:nonzero;fill:rgb(44.66095%,22.546387%,11.735535%);fill-opacity:1;" d="M 522.035156 412.824219 C 517.9375 400.742188 514.085938 382.269531 526.480469 377.347656 C 531.667969 360.894531 554.136719 366.253906 559.597656 368.101562 C 565.0625 369.945312 568.488281 367.269531 568.488281 367.269531 C 570.257812 369.039062 570.261719 372.566406 570.261719 372.566406 L 574.828125 367.179688 C 580.328125 371.023438 583.023438 380.339844 574.394531 392.976562 L 572.273438 403.589844 L 559.40625 418.753906 C 556.015625 422.753906 550.949219 424.941406 545.714844 424.675781 L 537.140625 424.242188 C 530.238281 423.890625 524.257812 419.367188 522.035156 412.824219 "/>
<path style=" stroke:none;fill-rule:nonzero;fill:rgb(97.453308%,65.124512%,40.686035%);fill-opacity:1;" d="M 575.902344 408.097656 C 575.382812 412.148438 571.671875 415.011719 567.617188 414.488281 C 563.5625 413.964844 560.699219 410.257812 561.222656 406.203125 C 561.746094 402.148438 565.457031 399.285156 569.511719 399.808594 C 573.5625 400.332031 576.425781 404.042969 575.902344 408.097656 "/>
<path style=" stroke:none;fill-rule:nonzero;fill:rgb(13.676453%,13.375854%,17.784119%);fill-opacity:1;" d="M 644.878906 522.40625 L 609.511719 486.871094 C 607.257812 484.609375 604.199219 483.339844 601.007812 483.339844 L 550.746094 483.339844 L 550.746094 505.929688 L 594.136719 505.929688 C 595.621094 505.929688 597.046875 506.515625 598.09375 507.566406 L 628.90625 538.375 L 644.878906 522.40625 "/>
<path style=" stroke:none;fill-rule:nonzero;fill:rgb(9.422302%,9.191895%,8.988953%);fill-opacity:1;" d="M 574.101562 494.808594 C 574.101562 500.921875 569.144531 505.878906 563.027344 505.878906 L 537.613281 505.878906 C 531.496094 505.878906 526.539062 500.921875 526.539062 494.808594 L 526.539062 491.644531 C 526.539062 485.527344 531.496094 480.570312 537.613281 480.570312 L 563.027344 480.570312 C 569.144531 480.570312 574.101562 485.527344 574.101562 491.644531 L 574.101562 494.808594 "/>
<path style=" stroke:none;fill-rule:nonzero;fill:rgb(9.422302%,9.191895%,8.988953%);fill-opacity:1;" d="M 554.855469 500.8125 L 593.191406 505.878906 L 554.527344 505.414062 Z M 554.855469 500.8125 "/>
<path style=" stroke:none;fill-rule:nonzero;fill:rgb(13.676453%,13.375854%,17.784119%);fill-opacity:1;" d="M 520.871094 431.390625 C 522.828125 420.089844 568.007812 422.921875 571.765625 434.746094 C 577.160156 451.722656 579.070312 494.421875 579.070312 494.421875 C 579.070312 494.421875 552.335938 505.878906 523.722656 497.8125 C 523.722656 497.8125 519.507812 439.273438 520.871094 431.390625 "/>
<g clip-path="url(#clip1)" clip-rule="nonzero">
<g clip-path="url(#clip2)" clip-rule="nonzero">
<path style=" stroke:none;fill-rule:nonzero;fill:rgb(94.787598%,94.219971%,97.434998%);fill-opacity:1;" d="M 609.167969 424.464844 L 637.140625 424.464844 L 637.140625 399.359375 L 609.167969 399.359375 Z M 609.167969 424.464844 "/>
</g>
</g>
<path style=" stroke:none;fill-rule:nonzero;fill:rgb(55.296326%,55.53894%,59.094238%);fill-opacity:1;" d="M 627.132812 427.496094 L 612.230469 421.488281 L 611.621094 422.730469 C 610.457031 421.480469 609.480469 420.023438 608.753906 418.390625 C 605.230469 410.484375 608.878906 400.933594 616.726562 397.332031 C 618.882812 396.34375 621.105469 395.882812 623.285156 395.882812 C 629.367188 395.882812 635.109375 399.472656 637.996094 405.21875 C 638.039062 405.308594 638.078125 405.398438 638.105469 405.484375 C 638.128906 405.53125 638.152344 405.582031 638.171875 405.632812 C 641.335938 413.769531 637.9375 423.175781 629.695312 426.660156 C 628.851562 427.015625 627.996094 427.292969 627.132812 427.496094 M 623.371094 399.359375 C 621.703125 399.359375 619.984375 399.710938 618.296875 400.464844 C 611.980469 403.285156 609.167969 410.746094 611.976562 417.03125 C 614.058594 421.695312 618.734375 424.464844 623.542969 424.464844 C 625.601562 424.464844 627.683594 423.957031 629.597656 422.878906 C 635.4375 419.585938 637.140625 412.824219 634.9375 406.824219 C 632.585938 402.261719 628.167969 399.359375 623.371094 399.359375 "/>
<path style=" stroke:none;fill-rule:nonzero;fill:rgb(53.244019%,51.600647%,59.889221%);fill-opacity:1;" d="M 623.527344 427.910156 C 619.050781 427.910156 614.6875 426.027344 611.621094 422.730469 L 612.230469 421.488281 L 627.132812 427.496094 C 625.9375 427.773438 624.730469 427.910156 623.527344 427.910156 "/>
<path style=" stroke:none;fill-rule:nonzero;fill:rgb(28.964233%,27.272034%,41.152954%);fill-opacity:1;" d="M 634.835938 406.550781 C 637.191406 412.617188 635.523438 419.535156 629.597656 422.878906 C 623.203125 426.480469 614.949219 423.691406 611.976562 417.03125 C 609.167969 410.746094 611.980469 403.285156 618.296875 400.464844 C 624.898438 397.515625 631.871094 400.722656 635.007812 406.964844 C 636.007812 408.953125 638.996094 407.203125 637.996094 405.21875 C 634.074219 397.414062 624.890625 393.585938 616.730469 397.332031 C 608.878906 400.933594 605.230469 410.484375 608.753906 418.390625 C 612.28125 426.3125 621.699219 430.042969 629.695312 426.660156 C 637.9375 423.175781 641.335938 413.769531 638.171875 405.632812 C 637.371094 403.578125 634.023438 404.472656 634.835938 406.550781 "/>
<path style=" stroke:none;fill-rule:nonzero;fill:rgb(42.927551%,40.830994%,55.192566%);fill-opacity:1;" d="M 633.4375 405.679688 C 635.796875 411.746094 634.128906 418.664062 628.195312 422.007812 C 621.804688 425.609375 613.550781 422.816406 610.578125 416.160156 C 607.769531 409.875 610.582031 402.410156 616.894531 399.59375 C 623.5 396.644531 630.472656 399.851562 633.609375 406.09375 C 634.609375 408.082031 637.597656 406.332031 636.597656 404.347656 C 632.675781 396.542969 623.492188 392.714844 615.328125 396.457031 C 607.480469 400.058594 603.832031 409.613281 607.355469 417.519531 C 610.886719 425.441406 620.300781 429.167969 628.296875 425.789062 C 636.539062 422.300781 639.9375 412.898438 636.773438 404.757812 C 635.976562 402.707031 632.628906 403.597656 633.4375 405.679688 "/>
<path style=" stroke:none;fill-rule:nonzero;fill:rgb(42.927551%,40.830994%,55.192566%);fill-opacity:1;" d="M 615.445312 425.648438 C 613.535156 431.871094 611.628906 438.089844 609.71875 444.3125 C 609.0625 446.445312 612.398438 447.359375 613.054688 445.234375 C 614.964844 439.011719 616.871094 432.789062 618.78125 426.566406 C 619.4375 424.433594 616.101562 423.523438 615.445312 425.648438 "/>
<path style=" stroke:none;fill-rule:nonzero;fill:rgb(97.453308%,65.124512%,40.686035%);fill-opacity:1;" d="M 609.453125 448.003906 C 609.453125 448.003906 621.183594 449.367188 622 441.1875 C 622 441.1875 627.453125 433.6875 622 432.253906 C 616.546875 430.820312 610.269531 429.050781 609.453125 432.253906 L 603.523438 445.550781 L 609.453125 448.003906 "/>
<path style=" stroke:none;fill-rule:nonzero;fill:rgb(13.676453%,13.375854%,17.784119%);fill-opacity:1;" d="M 557.703125 445.796875 C 565.445312 453.847656 573.792969 462.0625 583.214844 468.132812 C 589.746094 472.339844 596.875 473.679688 603.097656 468.09375 C 607.4375 464.195312 610.773438 458.75 613.671875 453.71875 C 619.609375 443.410156 603.671875 434.105469 597.738281 444.402344 C 595.691406 447.957031 593.40625 451.117188 591.289062 453.832031 C 590.625 454.683594 590.609375 454.429688 590.691406 454.535156 C 590.378906 454.125 595.390625 453.820312 595.644531 453.84375 C 593.722656 453.65625 595.976562 454.261719 594.9375 453.628906 C 593.042969 452.46875 590.578125 450.914062 589.265625 449.898438 C 583.175781 445.1875 576.5 438.726562 570.75 432.75 C 562.503906 424.175781 549.464844 437.230469 557.703125 445.796875 "/>
<path style=" stroke:none;fill-rule:nonzero;fill:rgb(13.676453%,13.375854%,17.784119%);fill-opacity:1;" d="M 517.691406 438.105469 C 520.925781 450.285156 524.15625 462.464844 527.390625 474.640625 C 530.433594 486.109375 548.238281 481.242188 545.183594 469.734375 C 541.953125 457.558594 538.71875 445.378906 535.488281 433.203125 C 532.441406 421.734375 514.640625 426.597656 517.691406 438.105469 "/>
<path style=" stroke:none;fill-rule:nonzero;fill:rgb(63.059998%,59.864807%,76.141357%);fill-opacity:1;" d="M 612.703125 402.8125 C 614.019531 401.332031 615.542969 400.222656 617.34375 399.398438 C 618.191406 399.007812 618.402344 397.78125 617.964844 397.03125 C 617.453125 396.160156 616.449219 396.019531 615.597656 396.410156 C 613.5625 397.34375 611.742188 398.691406 610.257812 400.367188 C 608.78125 402.023438 611.21875 404.480469 612.703125 402.8125 "/>
<path style=" stroke:none;fill-rule:nonzero;fill:rgb(98.002625%,86.685181%,20.448303%);fill-opacity:1;" d="M 577.136719 51.167969 C 572.777344 51.167969 568.421875 51.167969 564.0625 51.167969 C 560.84375 51.167969 560.839844 56.167969 564.0625 56.167969 C 568.421875 56.167969 572.777344 56.167969 577.136719 56.167969 C 580.355469 56.167969 580.359375 51.167969 577.136719 51.167969 "/>
<path style=" stroke:none;fill-rule:nonzero;fill:rgb(98.002625%,86.685181%,20.448303%);fill-opacity:1;" d="M 617.9375 121.800781 C 614.269531 125.46875 610.601562 129.136719 606.933594 132.804688 C 604.65625 135.082031 608.191406 138.617188 610.46875 136.339844 C 614.136719 132.671875 617.804688 129.003906 621.472656 125.335938 C 623.75 123.058594 620.214844 119.519531 617.9375 121.800781 "/>
<path style=" stroke:none;fill-rule:nonzero;fill:rgb(98.002625%,86.685181%,20.448303%);fill-opacity:1;" d="M 600.210938 51.167969 C 599.1875 51.167969 598.160156 51.167969 597.136719 51.167969 C 595.828125 51.167969 594.574219 52.316406 594.636719 53.667969 C 594.695312 55.023438 595.734375 56.167969 597.136719 56.167969 C 598.160156 56.167969 599.1875 56.167969 600.210938 56.167969 C 601.519531 56.167969 602.769531 55.019531 602.710938 53.667969 C 602.648438 52.3125 601.613281 51.167969 600.210938 51.167969 "/>
</g>
</svg>
