<?xml version="1.0"?>
<svg xmlns="http://www.w3.org/2000/svg" height="512px" viewBox="0 -31 442.69485 442" width="512px" class=""><g><path d="m340 81.6875v184.09375c0 18.316406-14.851562 33.167969-33.171875 33.167969h-273.65625c-18.320313 0-33.171875-14.851563-33.171875-33.167969v-184.09375zm0 0" fill="#e48e66" data-original="#E48E66" class="" style="fill:#6C9EF7" data-old_color="#e48e66"/><path d="m340 33.515625v48.171875h-340v-48.171875c0-18.316406 14.851562-33.167969 33.171875-33.167969h273.65625c18.320313 0 33.171875 14.851563 33.171875 33.167969zm-177.613281 8.046875c.027343-6.945312-5.582031-12.59375-12.527344-12.613281-6.941406-.023438-12.589844 5.585937-12.609375 12.53125-.019531 6.941406 5.59375 12.585937 12.535156 12.601562 6.9375.015625 12.574219-5.585937 12.601563-12.519531zm-56.449219-.175781c.023438-6.9375-5.582031-12.582031-12.523438-12.605469-6.9375-.023438-12.582031 5.585938-12.601562 12.527344-.023438 6.9375 5.585938 12.582031 12.527344 12.601562 6.9375.023438 12.582031-5.585937 12.597656-12.523437zm-56.4375-.179688c.019531-6.941406-5.589844-12.582031-12.53125-12.597656-6.9375-.019531-12.578125 5.589844-12.597656 12.527344-.019532 6.9375 5.589844 12.578125 12.527344 12.597656 6.941406.023437 12.582031-5.589844 12.601562-12.527344zm0 0" fill="#f8ec7d" data-original="#F8EC7D" class="" data-old_color="#f8ec7d" style="fill:#F7B46C"/><g fill="#e48e66"><path d="m149.855469 28.957031c6.941406.023438 12.546875 5.664063 12.523437 12.605469-.023437 6.9375-5.664062 12.542969-12.605468 12.523438-6.9375-.023438-12.542969-5.667969-12.519532-12.609376.027344-6.933593 5.667969-12.539062 12.601563-12.519531zm0 0" data-original="#000000" class="" style="fill:#FFEE66" data-old_color="#000000"/><path d="m93.417969 28.78125c6.9375.019531 12.546875 5.664062 12.527343 12.601562-.019531 6.941407-5.664062 12.550782-12.605468 12.527344-6.9375-.023437-12.546875-5.667968-12.523438-12.605468.019532-6.9375 5.660156-12.546876 12.601563-12.523438zm0 0" data-original="#000000" class="" style="fill:#FFEE66" data-old_color="#000000"/><path d="m36.976562 28.601562c6.941407.019532 12.550782 5.664063 12.53125 12.605469-.019531 6.941407-5.664062 12.550781-12.605468 12.527344-6.941406-.019531-12.550782-5.664063-12.53125-12.605469.007812-3.332031 1.34375-6.527344 3.707031-8.875 2.363281-2.351562 5.566406-3.664062 8.898437-3.652344zm0 0" data-original="#000000" class="" style="fill:#FFEE66" data-old_color="#000000"/></g><path d="m235.609375 298.953125c-7.480469-31.238281-.261719-64.183594 19.59375-89.433594 19.859375-25.246093 50.175781-40.027343 82.296875-40.117187h.21875c54.492188.015625 99.917969 41.707031 104.589844 96 4.671875 54.289062-32.964844 103.132812-86.652344 112.453125-53.6875 9.320312-105.582031-23.972657-119.484375-76.660157-.191406-.742187-.382813-1.492187-.5625-2.242187zm0 0" fill="#6fe3ff" data-original="#6FE3FF" class="" style="fill:#F7B46C" data-old_color="#6fe3ff"/><path d="m347.058594 303.144531-16.230469 16.3125c-5.042969 5.097657-11.917969 7.960938-19.085937 7.949219h-.03125c-10.925782.003906-20.773438-6.582031-24.945313-16.679688-4.167969-10.097656-1.839844-21.714843 5.90625-29.421874l16.320313-16.238282c2.738281-2.730468 2.75-7.164062.019531-9.902344-2.726563-2.742187-7.160157-2.75-9.902344-.023437l-16.320313 16.242187c-11.757812 11.707032-15.296874 29.347657-8.960937 44.683594 6.332031 15.335938 21.289063 25.339844 37.882813 25.339844h.054687c10.890625.015625 21.332031-4.332031 28.992187-12.074219l16.226563-16.3125c2.730469-2.738281 2.71875-7.171875-.023437-9.898437-2.738282-2.726563-7.171876-2.714844-9.898438.023437zm0 0" fill="#2561a1" data-original="#2561A1" class="active-path" data-old_color="#2561a1" style="fill:#FFEE66"/><path d="m392.722656 219.414062c-7.667968-7.714843-18.101562-12.039062-28.980468-12.007812h-.03125c-10.894532-.023438-21.347657 4.324219-29.011719 12.066406l-16.238281 16.3125c-1.792969 1.765625-2.5 4.359375-1.851563 6.789063.648437 2.433593 2.550781 4.328125 4.988281 4.96875 2.433594.636719 5.023438-.082031 6.78125-1.882813l16.242188-16.308594c5.046875-5.097656 11.925781-7.960937 19.101562-7.945312h.023438c10.921875 0 20.765625 6.585938 24.933594 16.679688 4.167968 10.09375 1.84375 21.707031-5.894532 29.414062l-16.316406 16.242188c-2.742188 2.726562-2.753906 7.15625-.027344 9.898437 2.726563 2.738281 7.160156 2.75 9.902344.023437l16.320312-16.242187c7.710938-7.675781 12.046876-18.109375 12.058594-28.988281.011719-10.882813-4.304687-21.324219-11.996094-29.019532zm0 0" fill="#2561a1" data-original="#2561A1" class="active-path" data-old_color="#2561a1" style="fill:#FFEE66"/><path d="m308.128906 304.003906c2.734375 2.734375 7.167969 2.734375 9.902344 0l49.289062-49.289062c2.734376-2.734375 2.734376-7.167969 0-9.902344-2.734374-2.734375-7.167968-2.734375-9.898437 0l-49.292969 49.289062c-2.734375 2.734376-2.734375 7.167969 0 9.902344zm0 0" fill="#2561a1" data-original="#2561A1" class="active-path" data-old_color="#2561a1" style="fill:#FFEE66"/></g> </svg>
